<?xml version="1.0" encoding="UTF-8"?>
<svg clip-rule="evenodd" fill-rule="evenodd" stroke-linejoin="round" stroke-miterlimit="2" version="1.1" viewBox="0 0 5309 1592" xml:space="preserve" xmlns="http://www.w3.org/2000/svg" xmlns:cc="http://creativecommons.org/ns#" xmlns:dc="http://purl.org/dc/elements/1.1/" xmlns:rdf="http://www.w3.org/1999/02/22-rdf-syntax-ns#"><metadata><rdf:RDF><cc:Work rdf:about=""><dc:format>image/svg+xml</dc:format><dc:type rdf:resource="http://purl.org/dc/dcmitype/StillImage"/><dc:title/></cc:Work></rdf:RDF></metadata>
    <g transform="matrix(.92182 0 0 .92182 -96.528 -518.36)">
        <g transform="matrix(1.1893 0 0 1.1893 1400.8 751.62)">
        <path d="m1718.7 777.88c-3.8255-0.7074-8.7932 3.8843-9.3085 6.4837-0.5172 2.6092 2.9114 7.5298 6.3003 8.691 31.483 10.737 115.66 41.472 182.82 54.784 38.04 7.5408 114.99 17.463 114.99 17.463s7.0805 8.5092 11.087 10.771c23.223 13.116 84.061 47.227 128 68.894 58.254 28.736 174.62 79.533 316.94 107.75 167.27 33.158 303.08 29.354 303.08 29.354s-178.64-125.37-437.1-176.61c-148.3-29.399-289.07-26.353-289.07-26.353l-13.009-11.672s159.37 10.143 305.9-6.6758c72.149-8.2888 217.41-35.635 217.41-35.635l28.258 17.03s-17.342 115.56 131.32 145.03c65.849 13.053 132.74-20.306 141.95-66.772 12.009-60.581-49.343-118.74-102.46-132.46-11.268-2.9167-28.469-8.3042-28.469-8.3042l56.883-19.94 18.462 12.55s195.25 110.12 368.27 144.42c122.09 24.203 272.74 24.94 272.74 24.94s-153.7-107.36-393.49-154.89c-128.71-25.514-243.47-22.93-243.47-22.93l-8.2942-9.4838s37.99-13.704 56.372-21.631c17.202-7.4268 53.715-24.941 53.715-24.941s21.505 4.8644 44.675-8.0873c17.726-9.9124 32.128-26.509 32.128-26.509l97.97-53.379s175.93-2.0502 300.66-39.379c250.95-75.096 360.31-157.98 360.31-157.98s-186.24-0.7898-353.38 50.132c-174.6 53.205-297.3 132.5-297.3 132.5s87.526-70.69 122.78-121.34c52.513-75.449 72.142-157.6 72.142-157.6s-66.771 41.896-120.45 116.56c-46.628 64.841-71.883 153.05-71.883 153.05s-29.652 18.079-44.864 26.166c-14.872 7.9091-46.383 22.358-46.383 22.358s11.524-26.607 14.322-40.722c13.627-68.742-21.732-104.26-49.306-109.72-64.603-12.806-110.81 63.922-119.34 106.94-13.296 67.075 29.993 99.716 29.993 99.716s-116.37 45.226-164.37 60.665c-52.876 17.003-152.84 41.328-152.84 41.328l10.102-12.698s160.37-120.11 216.08-201.26c133.17-193.98 159.32-345.56 159.32-345.56s-120.31 60.52-269.16 270.59c-56.945 80.371-113.24 269.1-113.24 269.1l-14.819 11.447-10.836 13.674-94.301 17.232s148.22-201.33 199.92-462.16c18.339-92.51 22.269-183.61 22.269-183.61s-144.24 188.94-196.33 451.68c-15.505 78.218-23.29 180.38-23.29 180.38l-16.656 15.365-102.08 11.591s53.966-43.384 67.372-111.01c13.407-67.634-12.874-134.64-68.345-145.64-55.461-10.994-106.47 55.16-106.47 55.16s-17.941-62.542-31.462-91.994c-13.535-29.485-49.73-84.952-49.73-84.952s-7.4084 62.829 10.064 155.51c6.7088 35.533 38.413 101.47 38.413 101.47s-6.7168 42.831 3.1938 77.949c5.2897 18.726 32.504 48.476 32.504 48.476s-124.72 16.36-323.17-22.979c-65.613-13.007-152.71-36.501-184.02-42.309z" fill="#478f37"/></g>
        <g transform="matrix(4.1667 0 0 4.1667 0 -655.19)">
            <path d="m174.21 339.5c0 2.228-0.742 3.898-2.041 5.383-2.413 2.598-3.527 4.083-3.712 4.083-0.928 1.671-1.856 5.568-2.784 12.064-3.898 31.552-5.754 62.733-5.754 93.543 0 17.446 2.97 27.097 9.28 29.325v6.31c-1.856 3.712-4.826 5.754-8.723 5.754-7.795 0-13.735-6.868-17.818-20.788-2.969-9.651-4.454-19.859-4.454-30.624 0-23.2 0.742-42.688 1.856-58.464-4.64 18.189-9.28 36.378-14.106 54.567-8.723 28.211-17.075 42.317-25.056 42.317-9.094 0-17.075-8.352-24.128-24.871-6.496-15.034-14.477-40.275-23.942-75.725-0.928 10.579-1.3 21.344-1.3 32.295 0 22.829 0.557 39.161 1.856 49.369 0.186 1.856 0.928 5.012 2.599 9.095 1.67 4.083 2.413 7.238 2.413 9.465 0 5.197-4.269 7.796-12.621 7.796-10.208 0-15.22-13.549-15.22-40.647 0-10.95 0.743-27.469 1.856-49.184 1.3-21.901 1.856-38.048 1.856-48.998 0-1.114-0.556-2.413-1.856-3.898-1.113-1.485-1.856-2.784-1.856-3.898 0-8.723 7.796-12.992 23.201-12.992 3.526 0 7.795 2.227 12.806 6.682 0.557 4.826 1.299 12.064 2.413 21.715 1.485 13.735 5.011 31.738 10.765 54.195 7.609 28.954 14.291 43.245 19.859 43.245 1.113 0 2.784-2.227 4.826-7.052 3.897-9.28 7.609-22.458 11.321-39.348 2.784-13.363 5.568-26.912 8.352-40.275 1.299-6.31 3.527-15.405 6.682-27.469 3.341-8.723 10.022-13.178 20.416-13.178 3.712 0 8.166 0.928 13.549 2.599 6.31 2.227 9.465 4.64 9.465 7.609z" fill="#009bce" fill-rule="nonzero"/>
        </g>
        <g transform="matrix(4.1667 0 0 4.1667 0 -801.35)">
            <path d="m315.23 483.15c0 7.61-3.341 11.322-9.837 11.322 0.743 3.897 2.413 8.723 5.012 14.662-0.186 3.527-1.485 6.311-4.084 8.538-2.784 2.227-5.753 3.341-9.28 3.341-2.784 0-6.125-0.928-9.837-2.784-2.041-4.084-2.969-8.724-2.969-14.106 0-1.485 0-3.526 0.185-6.125 0.186-2.784 0.186-4.825 0.186-6.31 0 1.113-2.413 1.67-7.61 1.67-8.723 0-18.931 0.371-30.624 1.114-17.075 1.113-26.355 2.598-27.84 4.083-1.484 1.67-2.598 10.022-2.969 25.242-2.042 2.969-4.64 4.454-7.61 4.454-3.341 0-6.682-1.485-10.022-4.083-3.527-2.784-5.197-5.754-5.197-8.909 0-1.114 1.485-5.382 4.269-12.992 2.969-11.136 7.981-27.84 15.033-49.926 20.973-57.165 38.048-85.933 51.783-85.933 13.363 0 23.757 15.219 30.995 45.286 3.341 13.734 6.311 34.522 9.095 62.733 4.083 1.114 6.496 1.856 7.609 2.227 2.599 1.485 3.712 3.527 3.712 6.496zm-32.48-9.094c-6.681-54.381-12.806-81.664-18.189-81.664-4.454 0-12.064 12.992-22.829 38.79-7.795 18.374-13.92 34.151-18.374 47.885 5.011-1.114 12.435-2.413 22.086-4.083 8.909-0.928 21.344-1.299 37.306-0.928z" fill="#009bce" fill-rule="nonzero"/>
        </g>
        <g transform="matrix(4.1667 0 0 4.1667 0 -673.75)">
            <path d="m444.59 342.1c0 1.67-0.743 3.897-2.227 6.496-1.671 3.526-2.599 5.568-2.97 6.31-4.455 14.106-6.682 25.613-6.682 34.522l-0.742 66.63c-0.186 6.868-1.671 13.735-4.64 20.788-3.898 9.094-8.723 13.549-14.291 13.549-8.538 0-17.076-7.053-25.428-21.345-5.939-10.579-12.064-25.056-18.189-43.616-3.712-12.064-7.238-24.128-10.95-36.192-3.341 26.356-4.825 43.988-4.825 52.896 0 19.86 1.113 31.181 3.526 34.151s3.526 5.011 3.526 6.496c0 2.97-1.485 5.568-4.64 7.795-2.969 2.227-6.125 3.341-9.28 3.341-4.268 0-7.795-4.64-10.579-13.734-2.227-7.053-3.341-13.549-3.341-19.489 0-2.598 0.186-6.496 0.371-11.692 0-5.197 0.186-9.095 0.186-11.693 0-6.311 0.742-15.776 2.227-28.397 1.671-12.435 2.413-21.901 2.413-28.211v-28.397c0-0.186-0.185-0.743-0.371-1.299-0.186-0.743-0.371-1.114-0.371-1.485 0-2.97 2.041-5.568 6.31-7.61 3.341-1.67 6.682-2.598 10.208-2.598 7.795 0 13.549 2.598 16.89 7.609 0.928 1.857 1.856 5.383 2.598 10.765 0.371 3.712 0.928 7.424 1.299 11.322 1.856 10.95 6.868 28.582 14.663 52.896 9.465 28.582 16.518 42.874 21.158 42.874 1.671 0 2.599-2.042 2.599-6.496 0-1.114-0.372-3.156-0.743-5.94s-0.557-5.011-0.557-6.496l2.413-62.918c0.371-9.466 2.042-18.746 4.826-27.84 4.083-12.807 9.466-19.303 16.333-19.303 2.041 0 5.011 1.485 8.908 4.269 0.186 0.743 0.372 1.485 0.372 2.042z" fill="#009bce" fill-rule="nonzero"/>
        </g>
        <g transform="matrix(4.1667 0 0 4.1667 0 -656.74)">
            <path d="m589.7 411.32c0 22.272-5.383 41.203-16.333 56.608-12.25 17.446-29.139 26.355-50.483 26.355-5.94 0-12.436-1.299-19.488-3.526-15.405-5.011-26.541-13.549-33.037-25.799-5.754-10.579-8.724-24.685-8.724-42.317 0-22.828 5.569-43.059 16.519-60.505 12.621-20.602 29.882-30.81 51.597-30.81 18.931 0 34.15 8.909 45.472 26.726 9.651 15.22 14.477 33.037 14.477 53.268zm-22.272-2.042c0-32.109-10.394-51.411-30.995-57.722-2.228-0.742-4.64-0.928-7.424-0.928-8.724 0-17.447 3.898-25.985 11.508-13.734 12.62-20.601 34.893-20.601 67.001 0 2.97 0.557 7.053 1.856 12.436 2.598 11.878 6.496 20.416 11.693 25.612 6.124 6.311 14.848 9.281 26.541 9.281 15.776 0 27.654-7.61 35.635-22.829 6.31-12.064 9.28-26.912 9.28-44.359z" fill="#009bce" fill-rule="nonzero"/>
        </g>
        <g transform="matrix(4.1667 0 0 4.1667 0 -689.22)">
            <path d="m716.87 345.81c0 3.897-0.371 8.352-0.928 13.177-0.556 4.826-1.67 10.208-3.34 16.333-1.671 6.125-3.898 12.621-6.867 19.859-2.97 7.425-6.682 15.405-11.322 24.129-8.352 15.59-15.776 24.87-22.272 28.211-0.186 2.97-0.371 5.568-0.371 7.981-0.186 2.412-0.186 4.64-0.186 6.867 0 3.341 0.186 6.496 0.371 9.094 0.186 2.784 0.557 5.383 1.114 7.981 0.557 2.413 1.299 5.011 2.227 7.424 0.742 2.413 1.856 4.826 3.341 7.61 0.185 0.185 0.185 0.742 0.185 1.485-0.185 1.67-1.113 2.784-2.969 3.526-1.856 0.557-4.826 0.928-8.909 0.928l-1.856-0.186c-7.795-0.556-12.25-7.052-13.363-19.859-0.743-5.939-1.114-11.693-1.299-17.261-0.186-5.382-0.372-10.95-0.372-16.333-3.526-0.556-6.681-2.412-9.651-5.939-2.784-3.526-5.382-7.424-7.424-11.878-2.227-4.269-4.083-8.723-5.568-13.363-1.485-4.455-2.598-7.981-3.341-10.58-1.299-4.64-2.598-9.837-3.712-15.405-1.113-5.753-2.041-11.136-3.155-16.332-0.928-5.197-2.041-9.652-3.155-13.735-1.299-4.083-2.413-6.681-3.898-8.166-0.742-0.557-1.484-1.114-2.227-1.856-0.742-0.557-0.928-1.299-0.928-2.227s0.371-1.856 1.485-2.784c0.928-0.928 2.227-1.856 3.712-2.784 1.67-0.743 3.341-1.485 5.197-1.856 1.856-0.557 3.712-0.743 5.568-0.743 3.897 0 7.238 0.928 10.393 2.97 3.156 1.856 4.64 4.083 4.64 6.681 0 0.928 0 2.042-0.185 3.713-0.186 1.855-0.372 3.526-0.372 5.382-0.185 1.856-0.185 3.712-0.371 5.197-0.185 1.67-0.185 2.784-0.185 3.34 0 9.28 1.856 19.86 5.753 31.553 7.053 23.014 12.992 34.336 17.447 34.336 2.598 0 5.382-1.485 8.352-4.64 2.969-2.97 5.753-7.053 8.352-11.879 2.784-4.825 5.382-10.393 7.795-16.518 2.599-6.311 4.64-12.436 6.496-18.56 1.671-6.311 3.155-12.25 4.269-18.004 1.113-5.568 1.67-10.393 1.67-14.291 0-1.299-0.371-2.227-1.113-3.155-0.743-0.742-1.485-1.485-2.413-2.227-0.742-0.557-1.485-1.114-2.227-1.485-0.743-0.371-1.114-0.742-1.114-1.114 0-1.113 1.299-2.784 3.527-4.64 2.227-1.67 5.939-2.784 10.95-2.784 1.485 0 2.97 0.557 4.64 1.485 1.485 0.928 2.784 2.042 3.897 3.341 1.114 1.299 2.042 2.784 2.599 4.269 0.742 1.485 1.113 2.598 1.113 3.712z" fill="#009bce" fill-rule="nonzero"/>
        </g>
        <g transform="matrix(4.1667 0 0 4.1667 1716.4 -801.35)">
            <path d="m282.56 341.91c-1.113 2.599-2.412 4.269-4.083 5.011-1.856 0.743-7.609 4.084-17.446 10.023-8.538 5.011-13.92 7.424-16.333 7.424-2.042 0-3.155-1.299-2.97-3.898l0.186-1.856c4.083-5.196 8.909-10.208 14.477-15.59 7.609-7.238 12.992-10.951 16.518-10.951 1.856 0 3.898 1.114 6.125 3.341 2.042 2.227 3.155 4.269 3.526 6.496z" fill="#009bce" fill-rule="nonzero"/>
        </g>
        <g transform="matrix(4.1667 0 0 4.1667 0 -652.1)">
            <path d="m836.99 438.98c0.371 3.527 0.557 6.496 0.743 8.909 0.185 2.599 0.371 5.197 0.742 7.795 0.186 2.413 0.743 5.197 1.671 7.981 0.742 2.97 1.856 6.311 3.34 9.837-0.185 3.526-1.484 6.31-4.083 8.352-2.598 2.227-5.753 3.341-9.28 3.341-2.413 0-5.568-0.928-9.837-2.599-2.041-3.897-2.969-8.537-2.969-14.291 0-1.299 0-3.155 0.185-5.568 0.186-2.598 0.371-4.454 0.371-5.939 0-2.97-0.185-6.125-0.556-9.28-0.372-3.155-0.557-5.939-0.928-8.538-4.083-27.097-7.61-47.513-10.579-60.877-2.784-13.363-5.568-20.044-8.167-20.044-4.454 0-12.064 12.62-22.829 38.048-3.897 9.28-7.424 17.817-10.579 25.427-2.97 7.795-5.568 15.219-7.61 22.086-1.299 3.527-2.412 7.239-3.155 10.765-0.742 3.527-1.485 6.496-2.042 8.723-0.371 1.114-0.742 3.712-1.299 7.981-0.556 4.269-0.928 9.837-1.484 16.89-2.042 2.969-4.64 4.454-7.61 4.454-1.671 0-3.341-0.371-5.011-1.113-1.856-0.928-3.341-1.856-4.826-2.97s-2.784-2.598-3.712-4.083c-1.113-1.485-1.485-3.155-1.485-4.64 0-0.928 1.3-5.197 4.084-12.992 12.249-44.544 24.128-78.138 36.006-100.78 11.693-22.458 21.901-33.78 30.81-33.78 5.197 0 10.022 2.042 14.105 5.94 4.084 3.897 7.795 10.208 10.951 18.745 3.341 8.538 6.125 19.674 8.537 33.223 2.599 13.549 4.64 29.881 6.496 48.998z" fill="#009bce" fill-rule="nonzero"/>
        </g>
        <g transform="matrix(4.1667 0 0 4.1667 0 -652.1)">
            <path d="m978.97 447.89c0 7.424-3.341 11.136-9.837 11.322 0.742 3.526 2.413 8.352 5.011 14.291-0.186 3.526-1.485 6.31-4.083 8.352-2.784 2.227-5.754 3.341-9.28 3.341-2.784 0-6.125-0.928-9.837-2.599-2.042-3.897-2.97-8.723-2.97-14.291 0-1.485 0-3.526 0.186-6.125 0.186-2.598 0.186-4.454 0.186-5.753 0 1.113-2.413 1.67-7.61 1.67-8.723 0-18.931 0.371-30.81 1.114-17.075 0.928-26.355 2.227-27.84 3.897-1.485 1.671-2.413 10.023-2.784 24.871-2.041 2.969-4.64 4.454-7.609 4.454-3.341 0-6.682-1.485-10.023-4.083-3.526-2.784-5.197-5.568-5.197-8.723 0-1.114 1.485-5.383 4.269-12.992 2.97-10.951 7.981-27.469 15.034-49.37 20.787-56.794 38.048-85.191 51.782-85.191 13.364 0 23.757 15.034 30.996 44.916 3.34 13.549 6.31 34.15 9.094 61.99 4.083 0.928 6.496 1.671 7.61 2.413 2.598 1.299 3.712 3.527 3.712 6.496zm-32.48-8.909c-6.682-54.009-12.807-80.921-18.189-80.921-4.455 0-12.064 12.62-22.829 38.048-7.795 18.188-13.92 34.15-18.374 47.513 5.011-1.113 12.435-2.412 22.086-3.897 8.909-1.114 21.344-1.299 37.306-0.743z" fill="#009bce" fill-rule="nonzero"/>
        </g>
        <g transform="matrix(770.43 0 0 748.78 4129.7 1374.4)">
            <path d="m0.461-0.439c0 0.014-1e-3 0.027-5e-3 0.039-3e-3 0.012-0.01 0.022-0.02 0.031-0.018 0.017-0.04 0.037-0.066 0.06s-0.052 0.046-0.077 0.071c-0.026 0.025-0.05 0.05-0.07 0.075-0.021 0.026-0.036 0.048-0.044 0.068 0.011 3e-3 0.024 4e-3 0.041 4e-3 0.023 0 0.048-2e-3 0.075-7e-3 0.028-4e-3 0.055-8e-3 0.083-0.014 0.027-5e-3 0.053-0.011 0.078-0.017s0.046-0.01 0.063-0.014h2e-3c5e-3 0 0.011 3e-3 0.017 7e-3 5e-3 4e-3 0.011 9e-3 0.017 0.016s0.011 0.014 0.014 0.022c4e-3 8e-3 6e-3 0.015 6e-3 0.022 0 0.034-0.02 0.051-0.059 0.051-1e-3 0-3e-3 0-5e-3 -1e-3h-6e-3c-0.081 9e-3 -0.149 0.017-0.204 0.024-0.056 7e-3 -0.096 0.011-0.122 0.011-0.01 0-0.019-1e-3 -0.027-4e-3 -8e-3 -2e-3 -0.021-0.01-0.038-0.021-0.014-9e-3 -0.025-0.018-0.034-0.028-9e-3 -0.011-0.014-0.021-0.014-0.032 0-0.035 0.026-0.085 0.079-0.15 0.025-0.031 0.051-0.06 0.078-0.087 0.026-0.027 0.053-0.055 0.08-0.085 6e-3 -6e-3 0.012-0.013 0.018-0.021 6e-3 -7e-3 9e-3 -0.013 9e-3 -0.019 0-7e-3 -3e-3 -0.015-0.01-0.025-0.032-0.044-0.069-0.084-0.111-0.117s-0.084-0.065-0.126-0.094c-0.015-0.01-0.025-0.021-0.03-0.033-4e-3 -0.012-7e-3 -0.023-7e-3 -0.034 0-0.017 3e-3 -0.029 0.01-0.036 6e-3 -7e-3 0.018-0.012 0.035-0.016s0.04-8e-3 0.07-0.013c0.029-4e-3 0.067-0.012 0.114-0.024 0.02-5e-3 0.041-9e-3 0.064-0.013 0.022-3e-3 0.044-6e-3 0.065-8e-3 0.021-3e-3 0.039-4e-3 0.056-5e-3s0.03-2e-3 0.039-2e-3c8e-3 0 0.018 1e-3 0.029 3e-3 0.01 2e-3 0.021 5e-3 0.031 9e-3 0.01 5e-3 0.018 0.011 0.025 0.019 6e-3 8e-3 0.01 0.018 0.01 0.031 0 0.019-8e-3 0.031-0.025 0.037-0.016 5e-3 -0.04 9e-3 -0.071 0.011-0.032 2e-3 -0.072 4e-3 -0.119 7e-3s-0.101 0.011-0.163 0.025c-5e-3 1e-3 -7e-3 5e-3 -7e-3 0.01 0 3e-3 1e-3 6e-3 3e-3 7e-3 2e-3 2e-3 6e-3 6e-3 0.013 0.011 0.03 0.025 0.059 0.05 0.088 0.075 0.028 0.025 0.053 0.049 0.075 0.071s0.04 0.042 0.053 0.06c0.014 0.018 0.02 0.032 0.02 0.043z" fill="#009bce" fill-rule="nonzero"/>
        </g>
        <g transform="matrix(4.1667 0 0 4.1667 0 922.41)">
            <path d="m158.25 280.85c0 4.083-2.599 7.424-7.61 10.022-4.269 1.856-8.723 2.784-13.363 2.784-21.53 0-43.06-20.23-64.96-60.32-12.992 15.034-19.488 25.242-19.488 30.624 0 14.106 1.856 24.314 5.382 30.253l0.742 6.682c-3.526 3.712-6.867 5.753-10.208 5.753-5.196 0-9.465-4.083-12.992-12.249-3.341-8.167-5.197-36.749-5.197-85.933 0-28.212 1.114-47.7 3.156-58.65 1.113-6.496 4.64-9.837 10.579-9.837 3.712 0 7.981 1.485 12.621 4.454 4.64 2.97 6.867 6.125 6.867 9.466 0 2.413-0.742 3.898-2.042 4.64-1.484 0.742-2.598 1.485-3.712 2.042-1.113 1.299-2.412 12.064-3.712 32.294-0.928 15.776-1.67 27.84-1.856 36.192 41.575-56.979 67.745-85.562 78.324-85.562 1.67 0 3.712 0.372 5.939 1.3 1.67 2.227 3.155 4.454 4.825 6.867 2.042 2.784 2.97 5.197 2.97 7.424 0 2.041-0.742 3.712-2.227 5.197-1.485 1.484-3.155 2.227-5.197 2.227-1.299 0-2.784-0.557-4.826-1.485l-0.742-0.742c-3.712 0.556-11.321 7.609-22.643 21.158-11.322 13.735-17.075 22.458-17.075 26.727 0 8.908 5.196 21.715 15.59 38.419 10.765 17.818 20.416 26.726 28.582 26.726 1.114 0 3.156-0.556 6.125-1.856 2.97-1.299 5.568-2.041 7.61-2.041 5.568 0 8.538 2.413 8.538 7.424z" fill="#009bce" fill-rule="nonzero"/>
        </g>
        <g transform="matrix(4.1667 0 0 4.1667 0 913.13)">
            <path d="m298.04 222.94c0 22.272-5.382 41.204-16.333 56.609-12.249 17.446-29.139 26.355-50.483 26.355-5.939 0-12.435-1.299-19.488-3.527-15.405-5.011-26.541-13.548-33.037-25.798-5.754-10.579-8.723-24.685-8.723-42.317 0-22.829 5.568-43.059 16.518-60.506 12.621-20.601 29.882-30.809 51.597-30.809 18.931 0 34.151 8.908 45.472 26.726 9.651 15.219 14.477 33.037 14.477 53.267zm-22.272-2.041c0-32.109-10.394-51.412-30.995-57.722-2.228-0.742-4.64-0.928-7.424-0.928-8.723 0-17.447 3.898-25.984 11.507-13.735 12.621-20.602 34.893-20.602 67.002 0 2.97 0.557 7.053 1.856 12.435 2.598 11.879 6.496 20.416 11.693 25.613 6.125 6.311 14.848 9.28 26.541 9.28 15.776 0 27.654-7.609 35.635-22.829 6.31-12.064 9.28-26.912 9.28-44.358z" fill="#009bce" fill-rule="nonzero"/>
        </g>
        <g transform="matrix(4.1667 0 0 4.1667 0 904.62)">
            <path d="m429.15 265.63c0 2.969-0.742 6.496-2.227 10.579-3.897 10.393-11.136 18.374-21.901 24.128-9.651 5.382-20.416 7.981-31.923 7.981-19.117 0-33.594-7.239-43.802-21.53-8.908-12.621-13.363-28.768-13.363-48.627 0-16.333 2.599-31.738 7.795-46.029 5.568-16.519 14.106-29.325 25.242-38.605 8.723-7.238 17.818-10.951 26.912-10.951 13.178 0 23.015 5.754 29.882 17.261 5.568 9.28 8.352 20.973 8.352 35.079 0 6.31-1.671 14.291-4.826 23.757-3.897 11.878-8.166 17.632-12.992 17.632-5.382 0-9.465-3.341-12.249-10.208 1.484-0.928 3.712-2.784 6.496-5.197 2.969-3.527 4.64-10.023 4.64-20.045 0-9.466-1.114-17.632-3.156-24.314-2.969-10.022-8.166-15.033-15.219-15.033-5.011 0-10.394 3.155-16.333 9.465-4.454 4.826-8.166 10.208-11.321 15.962-7.61 14.848-11.322 33.408-11.322 55.494 0 32.109 12.064 48.257 36.192 48.257 10.394 0 18.56-2.97 24.499-8.909 2.599-2.599 6.125-7.981 10.951-16.333 3.341-6.125 6.681-9.095 10.393-9.095 2.599 0 4.64 0.929 6.496 2.97 1.856 1.856 2.784 3.898 2.784 6.311z" fill="#009bce" fill-rule="nonzero"/>
        </g>
        <g transform="matrix(4.1667 0 0 4.1667 0 896.89)">
            <path d="m575.11 162.62c0 1.3-1.113 2.97-3.155 4.64-2.227 1.671-3.527 2.97-3.712 3.712-4.083 7.61-5.939 22.458-5.568 44.73l0.185 9.094c0.372-0.185 0.929-0.185 1.671-0.185 2.227 0 4.454 1.299 6.496 3.898 2.041 2.598 3.155 5.196 3.155 7.609 0 1.856-1.485 3.155-4.454 3.898-2.228 0.557-4.64 1.113-6.868 1.485 0.186 7.238 0.186 14.662 0.372 22.086 0.371 9.466 1.299 16.518 3.155 20.973 1.113 3.897 1.856 6.496 1.856 7.795 0 2.97-1.299 5.939-3.526 8.352-2.413 2.598-5.012 3.898-8.167 3.898-5.939 0-9.651-3.156-11.507-9.28-0.371-1.3-1.114-6.682-2.227-16.333-0.186-3.341-0.372-7.424-0.372-12.25v-9.465c-0.185-6.311-0.556-11.508-1.113-15.591-9.095 0.371-19.674 1.671-32.109 3.898-10.579 2.041-21.344 4.083-31.738 6.125 0.557 2.041 0.928 10.393 0.928 25.056 0 11.692 1.671 19.488 5.383 23.2 0.371 0.742 0.557 1.484 0.557 2.227 0 4.083-2.97 6.125-9.281 6.125-5.753 0-10.207-1.856-13.363-5.383-2.041-2.041-3.897-18.189-5.753-48.256-2.97-0.557-5.383-2.413-7.053-5.382-1.671-2.784-2.599-5.939-2.599-9.28 0-1.856 1.114-2.97 3.156-3.712 1.856-0.743 3.897-1.299 5.753-2.042 0.186-2.041 0.371-5.568 0.928-10.95 0.371-4.455 0.743-7.981 0.743-10.58 0-27.283 1.299-44.544 4.269-51.968 2.598-6.124 6.867-9.094 12.806-9.094 3.712 0 7.238 1.299 10.394 3.712 3.34 2.413 5.011 5.382 5.011 8.909 0 1.856-0.743 4.083-1.856 6.867-1.856 3.712-2.784 5.939-2.784 6.496-4.269 12.992-6.311 28.582-6.311 46.4v5.383c1.299-0.186 5.011-0.743 10.951-1.857 18.189-3.712 35.264-5.568 51.411-5.568 0.557-22.828 1.114-37.491 1.856-44.172 2.599-22.272 7.981-33.409 15.962-33.409 4.825 0 8.723 1.857 11.878 5.569 3.155 3.526 4.64 7.795 4.64 12.62z" fill="#009bce" fill-rule="nonzero"/>
        </g>
        <g transform="matrix(4.1667 0 0 4.1667 0 906.94)">
            <path d="m707.81 259.87c0 5.197-1.299 9.837-3.712 14.291-11.136 18.931-30.252 28.397-57.536 28.397-7.052 0-15.219-0.928-24.499-2.97-1.856 4.826-4.64 7.239-8.723 7.239-7.424 0-11.136-3.155-11.136-9.28v-3.341c0-1.299-0.186-2.227-0.557-2.413-2.042-0.928-4.083-2.041-5.939-3.155-1.856-0.928-2.784-2.97-2.784-5.754 0-4.825 2.413-7.424 7.053-8.166v-0.371c0-2.97 0-7.424 0.185-13.735 0.186-5.753 0.186-10.393 0.186-13.92v-1.67c-3.155-1.856-4.826-4.269-4.826-6.867 0-2.97 1.485-5.568 4.455-7.61v-71.085c0-2.413 1.299-5.011 4.083-7.424 2.598-2.598 5.197-3.898 7.795-3.898 3.341 0 5.568 0.372 6.867 1.3 1.485 1.856 3.155 3.526 4.64 5.196l-1.856 10.394c10.765-14.291 24.128-21.53 40.647-21.53 12.992 0 23.2 4.64 30.624 14.106 6.681 8.538 10.208 19.488 10.208 32.666 0 7.609-1.671 15.405-4.826 23.014-3.341 8.167-7.609 14.663-12.992 19.488 15.034 4.826 22.643 13.92 22.643 27.098zm-25.984-70.528c0-18.932-6.867-28.397-20.601-28.397-10.023 0-19.117 6.496-27.655 19.673-7.795 11.879-11.878 23.015-11.878 33.408v14.849h12.621c16.147 0 27.84-2.413 34.707-7.239 8.538-5.939 12.806-16.704 12.806-32.294zm4.826 69.229c0-6.125-7.424-10.023-22.458-11.879-6.124-0.557-16.333-0.928-30.624-0.928-5.011 0-9.28 0.186-12.435 0.557-0.186 3.898-0.371 7.61-0.371 11.136v14.291c0 3.341 0.185 6.125 0.371 8.352 7.424 3.156 15.776 4.64 25.056 4.64 8.352 0 16.704-2.227 25.427-6.867 10.023-5.382 15.034-11.693 15.034-19.302z" fill="#009bce" fill-rule="nonzero"/>
        </g>
        <g transform="matrix(4.1667 0 0 4.1667 0 911.58)">
            <path d="m823.66 216.82c0 12.806-1.671 26.54-4.641 40.832-3.712 17.817-8.908 30.067-15.404 36.934-7.981 8.538-18.004 12.807-29.697 12.807-10.579 0-19.673-3.156-27.654-9.652-8.537-7.052-14.477-16.704-17.818-28.953-2.227-8.538-3.526-20.231-3.526-34.708 0-7.238 0.557-17.817 1.485-32.108 0.928-14.292 1.299-25.057 1.299-32.295 0-1.114-0.371-2.97-1.299-5.382-0.928-2.413-1.485-4.269-1.485-5.383 0-3.897 3.155-7.053 9.28-9.651 4.826-1.856 9.466-2.97 14.291-2.97 5.197 0 7.796 1.671 7.796 4.826 0 1.856-0.743 4.269-2.228 7.424-1.67 3.341-2.412 5.939-2.412 7.795 0 6.125-0.743 15.405-2.228 28.026-1.67 12.435-2.412 21.901-2.412 28.211v28.768c0 8.909 1.67 16.704 5.196 23.572 4.084 8.537 10.208 12.992 18.189 12.992 15.591 0 25.799-14.292 30.995-42.689 2.228-13.363 3.341-33.964 3.341-61.99 0-10.208-1.485-18.56-4.64-24.871-0.928-1.856-1.299-3.34-1.299-4.454 0-2.784 0.928-5.382 3.155-7.981 2.042-2.598 4.455-4.083 7.239-4.083 2.969 0 6.124 1.114 9.465 3.341s5.012 4.64 5.012 7.424z" fill="#009bce" fill-rule="nonzero"/>
        </g>
        <g transform="matrix(4.1667 0 0 4.1667 0 904.62)">
            <path d="m954.62 265.63c0 2.969-0.743 6.496-2.227 10.579-3.898 10.393-11.137 18.374-21.901 24.128-9.652 5.382-20.416 7.981-31.924 7.981-19.117 0-33.593-7.239-43.801-21.53-8.909-12.621-13.364-28.768-13.364-48.627 0-16.333 2.599-31.738 7.796-46.029 5.568-16.519 14.105-29.325 25.241-38.605 8.723-7.238 17.818-10.951 26.912-10.951 13.178 0 23.015 5.754 29.882 17.261 5.568 9.28 8.352 20.973 8.352 35.079 0 6.31-1.67 14.291-4.826 23.757-3.897 11.878-8.166 17.632-12.992 17.632-5.382 0-9.465-3.341-12.249-10.208 1.485-0.928 3.712-2.784 6.496-5.197 2.969-3.527 4.64-10.023 4.64-20.045 0-9.466-1.114-17.632-3.155-24.314-2.97-10.022-8.167-15.033-15.22-15.033-5.011 0-10.393 3.155-16.333 9.465-4.454 4.826-8.166 10.208-11.321 15.962-7.61 14.848-11.322 33.408-11.322 55.494 0 32.109 12.064 48.257 36.192 48.257 10.394 0 18.56-2.97 24.5-8.909 2.598-2.599 6.124-7.981 10.95-16.333 3.341-6.125 6.682-9.095 10.394-9.095 2.598 0 4.64 0.929 6.496 2.97 1.856 1.856 2.784 3.898 2.784 6.311z" fill="#009bce" fill-rule="nonzero"/>
        </g>
        <g transform="matrix(4.1667 0 0 4.1667 0 896.89)">
            <path d="m1100.6 162.62c0 1.3-1.11 2.97-3.16 4.64-2.22 1.671-3.52 2.97-3.71 3.712-4.08 7.61-5.94 22.458-5.57 44.73l0.19 9.094c0.37-0.185 0.93-0.185 1.67-0.185 2.23 0 4.45 1.299 6.5 3.898 2.04 2.598 3.15 5.196 3.15 7.609 0 1.856-1.48 3.155-4.45 3.898-2.23 0.557-4.64 1.113-6.87 1.485 0.19 7.238 0.19 14.662 0.37 22.086 0.37 9.466 1.3 16.518 3.16 20.973 1.11 3.897 1.85 6.496 1.85 7.795 0 2.97-1.3 5.939-3.52 8.352-2.42 2.598-5.02 3.898-8.17 3.898-5.94 0-9.65-3.156-11.51-9.28-0.37-1.3-1.11-6.682-2.22-16.333-0.19-3.341-0.38-7.424-0.38-12.25v-9.465c-0.18-6.311-0.55-11.508-1.11-15.591-9.09 0.371-19.67 1.671-32.11 3.898-10.58 2.041-21.34 4.083-31.74 6.125 0.56 2.041 0.93 10.393 0.93 25.056 0 11.692 1.67 19.488 5.38 23.2 0.37 0.742 0.56 1.484 0.56 2.227 0 4.083-2.97 6.125-9.28 6.125-5.753 0-10.207-1.856-13.363-5.383-2.041-2.041-3.897-18.189-5.753-48.256-2.97-0.557-5.383-2.413-7.053-5.382-1.67-2.784-2.598-5.939-2.598-9.28 0-1.856 1.113-2.97 3.155-3.712 1.856-0.743 3.897-1.299 5.753-2.042 0.186-2.041 0.372-5.568 0.928-10.95 0.372-4.455 0.743-7.981 0.743-10.58 0-27.283 1.299-44.544 4.269-51.968 2.598-6.124 6.867-9.094 12.806-9.094 3.713 0 7.243 1.299 10.393 3.712 3.34 2.413 5.01 5.382 5.01 8.909 0 1.856-0.74 4.083-1.85 6.867-1.86 3.712-2.79 5.939-2.79 6.496-4.27 12.992-6.31 28.582-6.31 46.4v5.383c1.3-0.186 5.01-0.743 10.95-1.857 18.19-3.712 35.27-5.568 51.41-5.568 0.56-22.828 1.12-37.491 1.86-44.172 2.6-22.272 7.98-33.409 15.96-33.409 4.83 0 8.72 1.857 11.88 5.569 3.15 3.526 4.64 7.795 4.64 12.62z" fill="#009bce" fill-rule="nonzero"/>
        </g>
    </g>
</svg>
