<?xml version="1.0" encoding="UTF-8" standalone="no"?>
<svg
   xmlns:dc="http://purl.org/dc/elements/1.1/"
   xmlns:cc="http://creativecommons.org/ns#"
   xmlns:rdf="http://www.w3.org/1999/02/22-rdf-syntax-ns#"
   xmlns:svg="http://www.w3.org/2000/svg"
   xmlns="http://www.w3.org/2000/svg"
   xmlns:sodipodi="http://sodipodi.sourceforge.net/DTD/sodipodi-0.dtd"
   xmlns:inkscape="http://www.inkscape.org/namespaces/inkscape"
   width="100%"
   height="100%"
   viewBox="0 0 5309 1592"
   version="1.1"
   xml:space="preserve"
   style="clip-rule:evenodd;fill-rule:evenodd;stroke-linejoin:round;stroke-miterlimit:2"
   id="svg75"
   sodipodi:docname="logo.svg"
   inkscape:version="0.92.5 (2060ec1f9f, 2020-04-08)"><metadata
   id="metadata81"><rdf:RDF><cc:Work
       rdf:about=""><dc:format>image/svg+xml</dc:format><dc:type
         rdf:resource="http://purl.org/dc/dcmitype/StillImage" /><dc:title></dc:title></cc:Work></rdf:RDF></metadata><defs
   id="defs79" /><sodipodi:namedview
   pagecolor="#ffffff"
   bordercolor="#666666"
   borderopacity="1"
   objecttolerance="10"
   gridtolerance="10"
   guidetolerance="10"
   inkscape:pageopacity="0"
   inkscape:pageshadow="2"
   inkscape:window-width="1474"
   inkscape:window-height="846"
   id="namedview77"
   showgrid="true"
   inkscape:zoom="0.13209789"
   inkscape:cx="2490.608"
   inkscape:cy="341.62377"
   inkscape:window-x="259"
   inkscape:window-y="88"
   inkscape:window-maximized="0"
   inkscape:current-layer="g4"><inkscape:grid
     type="xygrid"
     id="grid83" /></sodipodi:namedview>
    <g
   id="Ebene1"
   transform="matrix(0.92182,0,0,0.92182,-96.5277,-518.362)">
        <g
   transform="matrix(1.18929,0,0,1.18929,1400.79,751.623)"
   id="g4">
            
        <path
   inkscape:connector-curvature="0"
   id="path87"
   style="fill:#478f37"
   d="m 1718.7354,777.88152 c -3.8255,-0.7074 -8.7932,3.8843 -9.3085,6.4837 -0.5172,2.6092 2.9114,7.5298 6.3003,8.691 31.4832,10.7368 115.6634,41.4723 182.8167,54.7844 38.0398,7.5408 114.9892,17.463 114.9892,17.463 0,0 7.0805,8.5092 11.0871,10.7714 23.2229,13.1161 84.0612,47.2272 127.9967,68.894 58.2542,28.7361 174.618,79.53258 316.9386,107.74528 167.2651,33.1576 303.0771,29.3537 303.0771,29.3537 0,0 -178.6417,-125.36988 -437.1022,-176.60548 -148.3042,-29.3989 -289.0734,-26.3534 -289.0734,-26.3534 l -13.0086,-11.6723 c 0,0 159.3697,10.1431 305.897,-6.6758 72.1489,-8.2888 217.409,-35.6349 217.409,-35.6349 l 28.2579,17.0298 c 0,0 -17.3424,115.5636 131.3247,145.0344 65.8487,13.05338 132.7422,-20.3059 141.9533,-66.7717 12.0093,-60.5811 -49.3426,-118.7411 -102.4585,-132.4614 -11.268,-2.9167 -28.4687,-8.3042 -28.4687,-8.3042 l 56.8831,-19.9397 18.4621,12.5495 c 0,0 195.2543,110.1191 368.2676,144.4162 122.0942,24.2032 272.7374,24.9398 272.7374,24.9398 0,0 -153.6994,-107.356 -393.4933,-154.8913 -128.7055,-25.5138 -243.4684,-22.9301 -243.4684,-22.9301 l -8.2942,-9.4838 c 0,0 37.99,-13.7045 56.3722,-21.6313 17.2025,-7.4268 53.7151,-24.9412 53.7151,-24.9412 0,0 21.5046,4.8644 44.6753,-8.0873 17.7258,-9.9124 32.1279,-26.5087 32.1279,-26.5087 l 97.9695,-53.3787 c 0,0 175.9266,-2.0502 300.6561,-39.3791 250.9485,-75.0964 360.3142,-157.9823 360.3142,-157.9823 0,0 -186.2414,-0.7898 -353.3804,50.132 -174.5984,53.2049 -297.2992,132.4993 -297.2992,132.4993 0,0 87.5263,-70.6898 122.7784,-121.3419 52.5134,-75.4489 72.1424,-157.6001 72.1424,-157.6001 0,0 -66.7712,41.8961 -120.4548,116.5625 -46.6283,64.8408 -71.8833,153.0537 -71.8833,153.0537 0,0 -29.6515,18.0793 -44.8643,26.1656 -14.8718,7.9091 -46.3828,22.3576 -46.3828,22.3576 0,0 11.5238,-26.6071 14.3219,-40.7224 13.627,-68.7424 -21.7323,-104.2559 -49.3057,-109.7218 -64.6029,-12.8065 -110.8149,63.9221 -119.3415,106.9351 -13.2965,67.0748 29.9928,99.7155 29.9928,99.7155 0,0 -116.3653,45.226 -164.3739,60.6654 -52.8755,17.0029 -152.8437,41.3284 -152.8437,41.3284 l 10.1019,-12.698 c 0,0 160.3663,-120.1094 216.0785,-201.255 133.1708,-193.9775 159.3243,-345.5552 159.3243,-345.5552 0,0 -120.3146,60.52 -269.1631,270.586 -56.9451,80.3711 -113.2374,269.0974 -113.2374,269.0974 l -14.8187,11.447 -10.8357,13.674 -94.3008,17.2321 c 0,0 148.2181,-201.3319 199.9223,-462.1565 18.3386,-92.5099 22.2689,-183.6146 22.2689,-183.6146 0,0 -144.2422,188.9385 -196.3257,451.6759 -15.5054,78.2179 -23.2903,180.3843 -23.2903,180.3843 l -16.6555,15.3646 -102.0825,11.5913 c 0,0 53.9662,-43.3844 67.3716,-111.0085 13.4073,-67.6339 -12.8743,-134.6434 -68.3449,-145.6396 -55.4608,-10.9942 -106.4681,55.1602 -106.4681,55.1602 0,0 -17.9411,-62.5424 -31.4624,-91.9938 -13.535,-29.4847 -49.7304,-84.9516 -49.7304,-84.9516 0,0 -7.4084,62.8287 10.0641,155.5052 6.7088,35.5327 38.4132,101.4662 38.4132,101.4662 0,0 -6.7168,42.8314 3.1938,77.9489 5.2897,18.726 32.5043,48.4757 32.5043,48.4757 0,0 -124.7219,16.3601 -323.1703,-22.9791 -65.6132,-13.0067 -152.7073,-36.5006 -184.0153,-42.3093 z" /></g>
        <g
   transform="matrix(4.16667,0,0,4.16667,0,-655.192)"
   id="g8">
            <path
   d="m 174.21,339.496 c 0,2.228 -0.742,3.898 -2.041,5.383 -2.413,2.598 -3.527,4.083 -3.712,4.083 -0.928,1.671 -1.856,5.568 -2.784,12.064 -3.898,31.552 -5.754,62.733 -5.754,93.543 0,17.446 2.97,27.097 9.28,29.325 v 6.31 c -1.856,3.712 -4.826,5.754 -8.723,5.754 -7.795,0 -13.735,-6.868 -17.818,-20.788 -2.969,-9.651 -4.454,-19.859 -4.454,-30.624 0,-23.2 0.742,-42.688 1.856,-58.464 -4.64,18.189 -9.28,36.378 -14.106,54.567 -8.723,28.211 -17.075,42.317 -25.056,42.317 -9.094,0 -17.075,-8.352 -24.128,-24.871 -6.496,-15.034 -14.477,-40.275 -23.942,-75.725 -0.928,10.579 -1.3,21.344 -1.3,32.295 0,22.829 0.557,39.161 1.856,49.369 0.186,1.856 0.928,5.012 2.599,9.095 1.67,4.083 2.413,7.238 2.413,9.465 0,5.197 -4.269,7.796 -12.621,7.796 -10.208,0 -15.22,-13.549 -15.22,-40.647 0,-10.95 0.743,-27.469 1.856,-49.184 1.3,-21.901 1.856,-38.048 1.856,-48.998 0,-1.114 -0.556,-2.413 -1.856,-3.898 -1.113,-1.485 -1.856,-2.784 -1.856,-3.898 0,-8.723 7.796,-12.992 23.201,-12.992 3.526,0 7.795,2.227 12.806,6.682 0.557,4.826 1.299,12.064 2.413,21.715 1.485,13.735 5.011,31.738 10.765,54.195 7.609,28.954 14.291,43.245 19.859,43.245 1.113,0 2.784,-2.227 4.826,-7.052 3.897,-9.28 7.609,-22.458 11.321,-39.348 2.784,-13.363 5.568,-26.912 8.352,-40.275 1.299,-6.31 3.527,-15.405 6.682,-27.469 3.341,-8.723 10.022,-13.178 20.416,-13.178 3.712,0 8.166,0.928 13.549,2.599 6.31,2.227 9.465,4.64 9.465,7.609 z"
   style="fill:#009bce;fill-rule:nonzero"
   id="path6"
   inkscape:connector-curvature="0" />
        </g>
        <g
   transform="matrix(4.16667,0,0,4.16667,0,-801.352)"
   id="g12">
            <path
   d="m 315.229,483.151 c 0,7.61 -3.341,11.322 -9.837,11.322 0.743,3.897 2.413,8.723 5.012,14.662 -0.186,3.527 -1.485,6.311 -4.084,8.538 -2.784,2.227 -5.753,3.341 -9.28,3.341 -2.784,0 -6.125,-0.928 -9.837,-2.784 -2.041,-4.084 -2.969,-8.724 -2.969,-14.106 0,-1.485 0,-3.526 0.185,-6.125 0.186,-2.784 0.186,-4.825 0.186,-6.31 0,1.113 -2.413,1.67 -7.61,1.67 -8.723,0 -18.931,0.371 -30.624,1.114 -17.075,1.113 -26.355,2.598 -27.84,4.083 -1.484,1.67 -2.598,10.022 -2.969,25.242 -2.042,2.969 -4.64,4.454 -7.61,4.454 -3.341,0 -6.682,-1.485 -10.022,-4.083 -3.527,-2.784 -5.197,-5.754 -5.197,-8.909 0,-1.114 1.485,-5.382 4.269,-12.992 2.969,-11.136 7.981,-27.84 15.033,-49.926 20.973,-57.165 38.048,-85.933 51.783,-85.933 13.363,0 23.757,15.219 30.995,45.286 3.341,13.734 6.311,34.522 9.095,62.733 4.083,1.114 6.496,1.856 7.609,2.227 2.599,1.485 3.712,3.527 3.712,6.496 z m -32.48,-9.094 c -6.681,-54.381 -12.806,-81.664 -18.189,-81.664 -4.454,0 -12.064,12.992 -22.829,38.79 -7.795,18.374 -13.92,34.151 -18.374,47.885 5.011,-1.114 12.435,-2.413 22.086,-4.083 8.909,-0.928 21.344,-1.299 37.306,-0.928 z"
   style="fill:#009bce;fill-rule:nonzero"
   id="path10"
   inkscape:connector-curvature="0" />
        </g>
        <g
   transform="matrix(4.16667,0,0,4.16667,0,-673.752)"
   id="g16">
            <path
   d="m 444.593,342.095 c 0,1.67 -0.743,3.897 -2.227,6.496 -1.671,3.526 -2.599,5.568 -2.97,6.31 -4.455,14.106 -6.682,25.613 -6.682,34.522 l -0.742,66.63 c -0.186,6.868 -1.671,13.735 -4.64,20.788 -3.898,9.094 -8.723,13.549 -14.291,13.549 -8.538,0 -17.076,-7.053 -25.428,-21.345 -5.939,-10.579 -12.064,-25.056 -18.189,-43.616 -3.712,-12.064 -7.238,-24.128 -10.95,-36.192 -3.341,26.356 -4.825,43.988 -4.825,52.896 0,19.86 1.113,31.181 3.526,34.151 2.413,2.97 3.526,5.011 3.526,6.496 0,2.97 -1.485,5.568 -4.64,7.795 -2.969,2.227 -6.125,3.341 -9.28,3.341 -4.268,0 -7.795,-4.64 -10.579,-13.734 -2.227,-7.053 -3.341,-13.549 -3.341,-19.489 0,-2.598 0.186,-6.496 0.371,-11.692 0,-5.197 0.186,-9.095 0.186,-11.693 0,-6.311 0.742,-15.776 2.227,-28.397 1.671,-12.435 2.413,-21.901 2.413,-28.211 v -28.397 c 0,-0.186 -0.185,-0.743 -0.371,-1.299 -0.186,-0.743 -0.371,-1.114 -0.371,-1.485 0,-2.97 2.041,-5.568 6.31,-7.61 3.341,-1.67 6.682,-2.598 10.208,-2.598 7.795,0 13.549,2.598 16.89,7.609 0.928,1.857 1.856,5.383 2.598,10.765 0.371,3.712 0.928,7.424 1.299,11.322 1.856,10.95 6.868,28.582 14.663,52.896 9.465,28.582 16.518,42.874 21.158,42.874 1.671,0 2.599,-2.042 2.599,-6.496 0,-1.114 -0.372,-3.156 -0.743,-5.94 -0.371,-2.784 -0.557,-5.011 -0.557,-6.496 l 2.413,-62.918 c 0.371,-9.466 2.042,-18.746 4.826,-27.84 4.083,-12.807 9.466,-19.303 16.333,-19.303 2.041,0 5.011,1.485 8.908,4.269 0.186,0.743 0.372,1.485 0.372,2.042 z"
   style="fill:#009bce;fill-rule:nonzero"
   id="path14"
   inkscape:connector-curvature="0" />
        </g>
        <g
   transform="matrix(4.16667,0,0,4.16667,0,-656.738)"
   id="g20">
            <path
   d="m 589.696,411.324 c 0,22.272 -5.383,41.203 -16.333,56.608 -12.25,17.446 -29.139,26.355 -50.483,26.355 -5.94,0 -12.436,-1.299 -19.488,-3.526 -15.405,-5.011 -26.541,-13.549 -33.037,-25.799 -5.754,-10.579 -8.724,-24.685 -8.724,-42.317 0,-22.828 5.569,-43.059 16.519,-60.505 12.621,-20.602 29.882,-30.81 51.597,-30.81 18.931,0 34.15,8.909 45.472,26.726 9.651,15.22 14.477,33.037 14.477,53.268 z m -22.272,-2.042 c 0,-32.109 -10.394,-51.411 -30.995,-57.722 -2.228,-0.742 -4.64,-0.928 -7.424,-0.928 -8.724,0 -17.447,3.898 -25.985,11.508 -13.734,12.62 -20.601,34.893 -20.601,67.001 0,2.97 0.557,7.053 1.856,12.436 2.598,11.878 6.496,20.416 11.693,25.612 6.124,6.311 14.848,9.281 26.541,9.281 15.776,0 27.654,-7.61 35.635,-22.829 6.31,-12.064 9.28,-26.912 9.28,-44.359 z"
   style="fill:#009bce;fill-rule:nonzero"
   id="path18"
   inkscape:connector-curvature="0" />
        </g>
        <g
   transform="matrix(4.16667,0,0,4.16667,0,-689.218)"
   id="g24">
            <path
   d="m 716.868,345.807 c 0,3.897 -0.371,8.352 -0.928,13.177 -0.556,4.826 -1.67,10.208 -3.34,16.333 -1.671,6.125 -3.898,12.621 -6.867,19.859 -2.97,7.425 -6.682,15.405 -11.322,24.129 -8.352,15.59 -15.776,24.87 -22.272,28.211 -0.186,2.97 -0.371,5.568 -0.371,7.981 -0.186,2.412 -0.186,4.64 -0.186,6.867 0,3.341 0.186,6.496 0.371,9.094 0.186,2.784 0.557,5.383 1.114,7.981 0.557,2.413 1.299,5.011 2.227,7.424 0.742,2.413 1.856,4.826 3.341,7.61 0.185,0.185 0.185,0.742 0.185,1.485 -0.185,1.67 -1.113,2.784 -2.969,3.526 -1.856,0.557 -4.826,0.928 -8.909,0.928 l -1.856,-0.186 c -7.795,-0.556 -12.25,-7.052 -13.363,-19.859 -0.743,-5.939 -1.114,-11.693 -1.299,-17.261 -0.186,-5.382 -0.372,-10.95 -0.372,-16.333 -3.526,-0.556 -6.681,-2.412 -9.651,-5.939 -2.784,-3.526 -5.382,-7.424 -7.424,-11.878 -2.227,-4.269 -4.083,-8.723 -5.568,-13.363 -1.485,-4.455 -2.598,-7.981 -3.341,-10.58 -1.299,-4.64 -2.598,-9.837 -3.712,-15.405 -1.113,-5.753 -2.041,-11.136 -3.155,-16.332 -0.928,-5.197 -2.041,-9.652 -3.155,-13.735 -1.299,-4.083 -2.413,-6.681 -3.898,-8.166 -0.742,-0.557 -1.484,-1.114 -2.227,-1.856 -0.742,-0.557 -0.928,-1.299 -0.928,-2.227 0,-0.928 0.371,-1.856 1.485,-2.784 0.928,-0.928 2.227,-1.856 3.712,-2.784 1.67,-0.743 3.341,-1.485 5.197,-1.856 1.856,-0.557 3.712,-0.743 5.568,-0.743 3.897,0 7.238,0.928 10.393,2.97 3.156,1.856 4.64,4.083 4.64,6.681 0,0.928 0,2.042 -0.185,3.713 -0.186,1.855 -0.372,3.526 -0.372,5.382 -0.185,1.856 -0.185,3.712 -0.371,5.197 -0.185,1.67 -0.185,2.784 -0.185,3.34 0,9.28 1.856,19.86 5.753,31.553 7.053,23.014 12.992,34.336 17.447,34.336 2.598,0 5.382,-1.485 8.352,-4.64 2.969,-2.97 5.753,-7.053 8.352,-11.879 2.784,-4.825 5.382,-10.393 7.795,-16.518 2.599,-6.311 4.64,-12.436 6.496,-18.56 1.671,-6.311 3.155,-12.25 4.269,-18.004 1.113,-5.568 1.67,-10.393 1.67,-14.291 0,-1.299 -0.371,-2.227 -1.113,-3.155 -0.743,-0.742 -1.485,-1.485 -2.413,-2.227 -0.742,-0.557 -1.485,-1.114 -2.227,-1.485 -0.743,-0.371 -1.114,-0.742 -1.114,-1.114 0,-1.113 1.299,-2.784 3.527,-4.64 2.227,-1.67 5.939,-2.784 10.95,-2.784 1.485,0 2.97,0.557 4.64,1.485 1.485,0.928 2.784,2.042 3.897,3.341 1.114,1.299 2.042,2.784 2.599,4.269 0.742,1.485 1.113,2.598 1.113,3.712 z"
   style="fill:#009bce;fill-rule:nonzero"
   id="path22"
   inkscape:connector-curvature="0" />
        </g>
        <g
   transform="matrix(4.16667,0,0,4.16667,1716.45,-801.352)"
   id="g28">
            <path
   d="m 282.563,341.909 c -1.113,2.599 -2.412,4.269 -4.083,5.011 -1.856,0.743 -7.609,4.084 -17.446,10.023 -8.538,5.011 -13.92,7.424 -16.333,7.424 -2.042,0 -3.155,-1.299 -2.97,-3.898 l 0.186,-1.856 c 4.083,-5.196 8.909,-10.208 14.477,-15.59 7.609,-7.238 12.992,-10.951 16.518,-10.951 1.856,0 3.898,1.114 6.125,3.341 2.042,2.227 3.155,4.269 3.526,6.496 z"
   style="fill:#009bce;fill-rule:nonzero"
   id="path26"
   inkscape:connector-curvature="0" />
        </g>
        <g
   transform="matrix(4.16667,0,0,4.16667,0,-652.098)"
   id="g32">
            <path
   d="m 836.989,438.978 c 0.371,3.527 0.557,6.496 0.743,8.909 0.185,2.599 0.371,5.197 0.742,7.795 0.186,2.413 0.743,5.197 1.671,7.981 0.742,2.97 1.856,6.311 3.34,9.837 -0.185,3.526 -1.484,6.31 -4.083,8.352 -2.598,2.227 -5.753,3.341 -9.28,3.341 -2.413,0 -5.568,-0.928 -9.837,-2.599 -2.041,-3.897 -2.969,-8.537 -2.969,-14.291 0,-1.299 0,-3.155 0.185,-5.568 0.186,-2.598 0.371,-4.454 0.371,-5.939 0,-2.97 -0.185,-6.125 -0.556,-9.28 -0.372,-3.155 -0.557,-5.939 -0.928,-8.538 -4.083,-27.097 -7.61,-47.513 -10.579,-60.877 -2.784,-13.363 -5.568,-20.044 -8.167,-20.044 -4.454,0 -12.064,12.62 -22.829,38.048 -3.897,9.28 -7.424,17.817 -10.579,25.427 -2.97,7.795 -5.568,15.219 -7.61,22.086 -1.299,3.527 -2.412,7.239 -3.155,10.765 -0.742,3.527 -1.485,6.496 -2.042,8.723 -0.371,1.114 -0.742,3.712 -1.299,7.981 -0.556,4.269 -0.928,9.837 -1.484,16.89 -2.042,2.969 -4.64,4.454 -7.61,4.454 -1.671,0 -3.341,-0.371 -5.011,-1.113 -1.856,-0.928 -3.341,-1.856 -4.826,-2.97 -1.485,-1.114 -2.784,-2.598 -3.712,-4.083 -1.113,-1.485 -1.485,-3.155 -1.485,-4.64 0,-0.928 1.3,-5.197 4.084,-12.992 12.249,-44.544 24.128,-78.138 36.006,-100.781 11.693,-22.458 21.901,-33.78 30.81,-33.78 5.197,0 10.022,2.042 14.105,5.94 4.084,3.897 7.795,10.208 10.951,18.745 3.341,8.538 6.125,19.674 8.537,33.223 2.599,13.549 4.64,29.881 6.496,48.998 z"
   style="fill:#009bce;fill-rule:nonzero"
   id="path30"
   inkscape:connector-curvature="0" />
        </g>
        <g
   transform="matrix(4.16667,0,0,4.16667,0,-652.098)"
   id="g36">
            <path
   d="m 978.974,447.887 c 0,7.424 -3.341,11.136 -9.837,11.322 0.742,3.526 2.413,8.352 5.011,14.291 -0.186,3.526 -1.485,6.31 -4.083,8.352 -2.784,2.227 -5.754,3.341 -9.28,3.341 -2.784,0 -6.125,-0.928 -9.837,-2.599 -2.042,-3.897 -2.97,-8.723 -2.97,-14.291 0,-1.485 0,-3.526 0.186,-6.125 0.186,-2.598 0.186,-4.454 0.186,-5.753 0,1.113 -2.413,1.67 -7.61,1.67 -8.723,0 -18.931,0.371 -30.81,1.114 -17.075,0.928 -26.355,2.227 -27.84,3.897 -1.485,1.671 -2.413,10.023 -2.784,24.871 -2.041,2.969 -4.64,4.454 -7.609,4.454 -3.341,0 -6.682,-1.485 -10.023,-4.083 -3.526,-2.784 -5.197,-5.568 -5.197,-8.723 0,-1.114 1.485,-5.383 4.269,-12.992 2.97,-10.951 7.981,-27.469 15.034,-49.37 20.787,-56.794 38.048,-85.191 51.782,-85.191 13.364,0 23.757,15.034 30.996,44.916 3.34,13.549 6.31,34.15 9.094,61.99 4.083,0.928 6.496,1.671 7.61,2.413 2.598,1.299 3.712,3.527 3.712,6.496 z m -32.48,-8.909 c -6.682,-54.009 -12.807,-80.921 -18.189,-80.921 -4.455,0 -12.064,12.62 -22.829,38.048 -7.795,18.188 -13.92,34.15 -18.374,47.513 5.011,-1.113 12.435,-2.412 22.086,-3.897 8.909,-1.114 21.344,-1.299 37.306,-0.743 z"
   style="fill:#009bce;fill-rule:nonzero"
   id="path34"
   inkscape:connector-curvature="0" />
        </g>
        <g
   transform="matrix(770.428,0,0,748.782,4129.7,1374.43)"
   id="g40">
            <path
   d="m 0.461,-0.439 c 0,0.014 -0.001,0.027 -0.005,0.039 -0.003,0.012 -0.01,0.022 -0.02,0.031 -0.018,0.017 -0.04,0.037 -0.066,0.06 -0.026,0.023 -0.052,0.046 -0.077,0.071 -0.026,0.025 -0.05,0.05 -0.07,0.075 -0.021,0.026 -0.036,0.048 -0.044,0.068 0.011,0.003 0.024,0.004 0.041,0.004 0.023,0 0.048,-0.002 0.075,-0.007 0.028,-0.004 0.055,-0.008 0.083,-0.014 0.027,-0.005 0.053,-0.011 0.078,-0.017 0.025,-0.006 0.046,-0.01 0.063,-0.014 h 0.002 c 0.005,0 0.011,0.003 0.017,0.007 0.005,0.004 0.011,0.009 0.017,0.016 0.006,0.007 0.011,0.014 0.014,0.022 0.004,0.008 0.006,0.015 0.006,0.022 0,0.034 -0.02,0.051 -0.059,0.051 -0.001,0 -0.003,0 -0.005,-10e-4 -0.002,0 -0.004,0 -0.006,0 C 0.424,-0.017 0.356,-0.009 0.301,-0.002 0.245,0.005 0.205,0.009 0.179,0.009 0.169,0.009 0.16,0.008 0.152,0.005 0.144,0.003 0.131,-0.005 0.114,-0.016 0.1,-0.025 0.089,-0.034 0.08,-0.044 0.071,-0.055 0.066,-0.065 0.066,-0.076 c 0,-0.035 0.026,-0.085 0.079,-0.15 C 0.17,-0.257 0.196,-0.286 0.223,-0.313 0.249,-0.34 0.276,-0.368 0.303,-0.398 0.309,-0.404 0.315,-0.411 0.321,-0.419 0.327,-0.426 0.33,-0.432 0.33,-0.438 0.33,-0.445 0.327,-0.453 0.32,-0.463 0.288,-0.507 0.251,-0.547 0.209,-0.58 0.167,-0.613 0.125,-0.645 0.083,-0.674 0.068,-0.684 0.058,-0.695 0.053,-0.707 0.049,-0.719 0.046,-0.73 0.046,-0.741 c 0,-0.017 0.003,-0.029 0.01,-0.036 0.006,-0.007 0.018,-0.012 0.035,-0.016 0.017,-0.004 0.04,-0.008 0.07,-0.013 0.029,-0.004 0.067,-0.012 0.114,-0.024 0.02,-0.005 0.041,-0.009 0.064,-0.013 0.022,-0.003 0.044,-0.006 0.065,-0.008 0.021,-0.003 0.039,-0.004 0.056,-0.005 0.017,-0.001 0.03,-0.002 0.039,-0.002 0.008,0 0.018,0.001 0.029,0.003 0.01,0.002 0.021,0.005 0.031,0.009 0.01,0.005 0.018,0.011 0.025,0.019 0.006,0.008 0.01,0.018 0.01,0.031 0,0.019 -0.008,0.031 -0.025,0.037 -0.016,0.005 -0.04,0.009 -0.071,0.011 -0.032,0.002 -0.072,0.004 -0.119,0.007 -0.047,0.003 -0.101,0.011 -0.163,0.025 -0.005,0.001 -0.007,0.005 -0.007,0.01 0,0.003 0.001,0.006 0.003,0.007 0.002,0.002 0.006,0.006 0.013,0.011 0.03,0.025 0.059,0.05 0.088,0.075 0.028,0.025 0.053,0.049 0.075,0.071 0.022,0.022 0.04,0.042 0.053,0.06 0.014,0.018 0.02,0.032 0.02,0.043 z"
   style="fill:#009bce;fill-rule:nonzero"
   id="path38"
   inkscape:connector-curvature="0" />
        </g>
        <g
   transform="matrix(4.16667,0,0,4.16667,0,922.412)"
   id="g44">
            <path
   d="m 158.249,280.847 c 0,4.083 -2.599,7.424 -7.61,10.022 -4.269,1.856 -8.723,2.784 -13.363,2.784 -21.53,0 -43.06,-20.23 -64.96,-60.32 -12.992,15.034 -19.488,25.242 -19.488,30.624 0,14.106 1.856,24.314 5.382,30.253 l 0.742,6.682 c -3.526,3.712 -6.867,5.753 -10.208,5.753 -5.196,0 -9.465,-4.083 -12.992,-12.249 -3.341,-8.167 -5.197,-36.749 -5.197,-85.933 0,-28.212 1.114,-47.7 3.156,-58.65 1.113,-6.496 4.64,-9.837 10.579,-9.837 3.712,0 7.981,1.485 12.621,4.454 4.64,2.97 6.867,6.125 6.867,9.466 0,2.413 -0.742,3.898 -2.042,4.64 -1.484,0.742 -2.598,1.485 -3.712,2.042 -1.113,1.299 -2.412,12.064 -3.712,32.294 -0.928,15.776 -1.67,27.84 -1.856,36.192 41.575,-56.979 67.745,-85.562 78.324,-85.562 1.67,0 3.712,0.372 5.939,1.3 1.67,2.227 3.155,4.454 4.825,6.867 2.042,2.784 2.97,5.197 2.97,7.424 0,2.041 -0.742,3.712 -2.227,5.197 -1.485,1.484 -3.155,2.227 -5.197,2.227 -1.299,0 -2.784,-0.557 -4.826,-1.485 l -0.742,-0.742 c -3.712,0.556 -11.321,7.609 -22.643,21.158 -11.322,13.735 -17.075,22.458 -17.075,26.727 0,8.908 5.196,21.715 15.59,38.419 10.765,17.818 20.416,26.726 28.582,26.726 1.114,0 3.156,-0.556 6.125,-1.856 2.97,-1.299 5.568,-2.041 7.61,-2.041 5.568,0 8.538,2.413 8.538,7.424 z"
   style="fill:#009bce;fill-rule:nonzero"
   id="path42"
   inkscape:connector-curvature="0" />
        </g>
        <g
   transform="matrix(4.16667,0,0,4.16667,0,913.132)"
   id="g48">
            <path
   d="m 298.043,222.939 c 0,22.272 -5.382,41.204 -16.333,56.609 -12.249,17.446 -29.139,26.355 -50.483,26.355 -5.939,0 -12.435,-1.299 -19.488,-3.527 -15.405,-5.011 -26.541,-13.548 -33.037,-25.798 -5.754,-10.579 -8.723,-24.685 -8.723,-42.317 0,-22.829 5.568,-43.059 16.518,-60.506 12.621,-20.601 29.882,-30.809 51.597,-30.809 18.931,0 34.151,8.908 45.472,26.726 9.651,15.219 14.477,33.037 14.477,53.267 z m -22.272,-2.041 c 0,-32.109 -10.394,-51.412 -30.995,-57.722 -2.228,-0.742 -4.64,-0.928 -7.424,-0.928 -8.723,0 -17.447,3.898 -25.984,11.507 -13.735,12.621 -20.602,34.893 -20.602,67.002 0,2.97 0.557,7.053 1.856,12.435 2.598,11.879 6.496,20.416 11.693,25.613 6.125,6.311 14.848,9.28 26.541,9.28 15.776,0 27.654,-7.609 35.635,-22.829 6.31,-12.064 9.28,-26.912 9.28,-44.358 z"
   style="fill:#009bce;fill-rule:nonzero"
   id="path46"
   inkscape:connector-curvature="0" />
        </g>
        <g
   transform="matrix(4.16667,0,0,4.16667,0,904.625)"
   id="g52">
            <path
   d="m 429.151,265.628 c 0,2.969 -0.742,6.496 -2.227,10.579 -3.897,10.393 -11.136,18.374 -21.901,24.128 -9.651,5.382 -20.416,7.981 -31.923,7.981 -19.117,0 -33.594,-7.239 -43.802,-21.53 -8.908,-12.621 -13.363,-28.768 -13.363,-48.627 0,-16.333 2.599,-31.738 7.795,-46.029 5.568,-16.519 14.106,-29.325 25.242,-38.605 8.723,-7.238 17.818,-10.951 26.912,-10.951 13.178,0 23.015,5.754 29.882,17.261 5.568,9.28 8.352,20.973 8.352,35.079 0,6.31 -1.671,14.291 -4.826,23.757 -3.897,11.878 -8.166,17.632 -12.992,17.632 -5.382,0 -9.465,-3.341 -12.249,-10.208 1.484,-0.928 3.712,-2.784 6.496,-5.197 2.969,-3.527 4.64,-10.023 4.64,-20.045 0,-9.466 -1.114,-17.632 -3.156,-24.314 -2.969,-10.022 -8.166,-15.033 -15.219,-15.033 -5.011,0 -10.394,3.155 -16.333,9.465 -4.454,4.826 -8.166,10.208 -11.321,15.962 -7.61,14.848 -11.322,33.408 -11.322,55.494 0,32.109 12.064,48.257 36.192,48.257 10.394,0 18.56,-2.97 24.499,-8.909 2.599,-2.599 6.125,-7.981 10.951,-16.333 3.341,-6.125 6.681,-9.095 10.393,-9.095 2.599,0 4.64,0.929 6.496,2.97 1.856,1.856 2.784,3.898 2.784,6.311 z"
   style="fill:#009bce;fill-rule:nonzero"
   id="path50"
   inkscape:connector-curvature="0" />
        </g>
        <g
   transform="matrix(4.16667,0,0,4.16667,0,896.892)"
   id="g56">
            <path
   d="m 575.107,162.619 c 0,1.3 -1.113,2.97 -3.155,4.64 -2.227,1.671 -3.527,2.97 -3.712,3.712 -4.083,7.61 -5.939,22.458 -5.568,44.73 l 0.185,9.094 c 0.372,-0.185 0.929,-0.185 1.671,-0.185 2.227,0 4.454,1.299 6.496,3.898 2.041,2.598 3.155,5.196 3.155,7.609 0,1.856 -1.485,3.155 -4.454,3.898 -2.228,0.557 -4.64,1.113 -6.868,1.485 0.186,7.238 0.186,14.662 0.372,22.086 0.371,9.466 1.299,16.518 3.155,20.973 1.113,3.897 1.856,6.496 1.856,7.795 0,2.97 -1.299,5.939 -3.526,8.352 -2.413,2.598 -5.012,3.898 -8.167,3.898 -5.939,0 -9.651,-3.156 -11.507,-9.28 -0.371,-1.3 -1.114,-6.682 -2.227,-16.333 -0.186,-3.341 -0.372,-7.424 -0.372,-12.25 v -9.465 c -0.185,-6.311 -0.556,-11.508 -1.113,-15.591 -9.095,0.371 -19.674,1.671 -32.109,3.898 -10.579,2.041 -21.344,4.083 -31.738,6.125 0.557,2.041 0.928,10.393 0.928,25.056 0,11.692 1.671,19.488 5.383,23.2 0.371,0.742 0.557,1.484 0.557,2.227 0,4.083 -2.97,6.125 -9.281,6.125 -5.753,0 -10.207,-1.856 -13.363,-5.383 -2.041,-2.041 -3.897,-18.189 -5.753,-48.256 -2.97,-0.557 -5.383,-2.413 -7.053,-5.382 -1.671,-2.784 -2.599,-5.939 -2.599,-9.28 0,-1.856 1.114,-2.97 3.156,-3.712 1.856,-0.743 3.897,-1.299 5.753,-2.042 0.186,-2.041 0.371,-5.568 0.928,-10.95 0.371,-4.455 0.743,-7.981 0.743,-10.58 0,-27.283 1.299,-44.544 4.269,-51.968 2.598,-6.124 6.867,-9.094 12.806,-9.094 3.712,0 7.238,1.299 10.394,3.712 3.34,2.413 5.011,5.382 5.011,8.909 0,1.856 -0.743,4.083 -1.856,6.867 -1.856,3.712 -2.784,5.939 -2.784,6.496 -4.269,12.992 -6.311,28.582 -6.311,46.4 v 5.383 c 1.299,-0.186 5.011,-0.743 10.951,-1.857 18.189,-3.712 35.264,-5.568 51.411,-5.568 0.557,-22.828 1.114,-37.491 1.856,-44.172 2.599,-22.272 7.981,-33.409 15.962,-33.409 4.825,0 8.723,1.857 11.878,5.569 3.155,3.526 4.64,7.795 4.64,12.62 z"
   style="fill:#009bce;fill-rule:nonzero"
   id="path54"
   inkscape:connector-curvature="0" />
        </g>
        <g
   transform="matrix(4.16667,0,0,4.16667,0,906.945)"
   id="g60">
            <path
   d="m 707.811,259.874 c 0,5.197 -1.299,9.837 -3.712,14.291 -11.136,18.931 -30.252,28.397 -57.536,28.397 -7.052,0 -15.219,-0.928 -24.499,-2.97 -1.856,4.826 -4.64,7.239 -8.723,7.239 -7.424,0 -11.136,-3.155 -11.136,-9.28 v -3.341 c 0,-1.299 -0.186,-2.227 -0.557,-2.413 -2.042,-0.928 -4.083,-2.041 -5.939,-3.155 -1.856,-0.928 -2.784,-2.97 -2.784,-5.754 0,-4.825 2.413,-7.424 7.053,-8.166 v -0.371 c 0,-2.97 0,-7.424 0.185,-13.735 0.186,-5.753 0.186,-10.393 0.186,-13.92 v -1.67 c -3.155,-1.856 -4.826,-4.269 -4.826,-6.867 0,-2.97 1.485,-5.568 4.455,-7.61 v -71.085 c 0,-2.413 1.299,-5.011 4.083,-7.424 2.598,-2.598 5.197,-3.898 7.795,-3.898 3.341,0 5.568,0.372 6.867,1.3 1.485,1.856 3.155,3.526 4.64,5.196 l -1.856,10.394 c 10.765,-14.291 24.128,-21.53 40.647,-21.53 12.992,0 23.2,4.64 30.624,14.106 6.681,8.538 10.208,19.488 10.208,32.666 0,7.609 -1.671,15.405 -4.826,23.014 -3.341,8.167 -7.609,14.663 -12.992,19.488 15.034,4.826 22.643,13.92 22.643,27.098 z m -25.984,-70.528 c 0,-18.932 -6.867,-28.397 -20.601,-28.397 -10.023,0 -19.117,6.496 -27.655,19.673 -7.795,11.879 -11.878,23.015 -11.878,33.408 v 14.849 h 12.621 c 16.147,0 27.84,-2.413 34.707,-7.239 8.538,-5.939 12.806,-16.704 12.806,-32.294 z m 4.826,69.229 c 0,-6.125 -7.424,-10.023 -22.458,-11.879 -6.124,-0.557 -16.333,-0.928 -30.624,-0.928 -5.011,0 -9.28,0.186 -12.435,0.557 -0.186,3.898 -0.371,7.61 -0.371,11.136 v 14.291 c 0,3.341 0.185,6.125 0.371,8.352 7.424,3.156 15.776,4.64 25.056,4.64 8.352,0 16.704,-2.227 25.427,-6.867 10.023,-5.382 15.034,-11.693 15.034,-19.302 z"
   style="fill:#009bce;fill-rule:nonzero"
   id="path58"
   inkscape:connector-curvature="0" />
        </g>
        <g
   transform="matrix(4.16667,0,0,4.16667,0,911.585)"
   id="g64">
            <path
   d="m 823.664,216.815 c 0,12.806 -1.671,26.54 -4.641,40.832 -3.712,17.817 -8.908,30.067 -15.404,36.934 -7.981,8.538 -18.004,12.807 -29.697,12.807 -10.579,0 -19.673,-3.156 -27.654,-9.652 -8.537,-7.052 -14.477,-16.704 -17.818,-28.953 -2.227,-8.538 -3.526,-20.231 -3.526,-34.708 0,-7.238 0.557,-17.817 1.485,-32.108 0.928,-14.292 1.299,-25.057 1.299,-32.295 0,-1.114 -0.371,-2.97 -1.299,-5.382 -0.928,-2.413 -1.485,-4.269 -1.485,-5.383 0,-3.897 3.155,-7.053 9.28,-9.651 4.826,-1.856 9.466,-2.97 14.291,-2.97 5.197,0 7.796,1.671 7.796,4.826 0,1.856 -0.743,4.269 -2.228,7.424 -1.67,3.341 -2.412,5.939 -2.412,7.795 0,6.125 -0.743,15.405 -2.228,28.026 -1.67,12.435 -2.412,21.901 -2.412,28.211 v 28.768 c 0,8.909 1.67,16.704 5.196,23.572 4.084,8.537 10.208,12.992 18.189,12.992 15.591,0 25.799,-14.292 30.995,-42.689 2.228,-13.363 3.341,-33.964 3.341,-61.99 0,-10.208 -1.485,-18.56 -4.64,-24.871 -0.928,-1.856 -1.299,-3.34 -1.299,-4.454 0,-2.784 0.928,-5.382 3.155,-7.981 2.042,-2.598 4.455,-4.083 7.239,-4.083 2.969,0 6.124,1.114 9.465,3.341 3.341,2.227 5.012,4.64 5.012,7.424 z"
   style="fill:#009bce;fill-rule:nonzero"
   id="path62"
   inkscape:connector-curvature="0" />
        </g>
        <g
   transform="matrix(4.16667,0,0,4.16667,0,904.625)"
   id="g68">
            <path
   d="m 954.623,265.628 c 0,2.969 -0.743,6.496 -2.227,10.579 -3.898,10.393 -11.137,18.374 -21.901,24.128 -9.652,5.382 -20.416,7.981 -31.924,7.981 -19.117,0 -33.593,-7.239 -43.801,-21.53 -8.909,-12.621 -13.364,-28.768 -13.364,-48.627 0,-16.333 2.599,-31.738 7.796,-46.029 5.568,-16.519 14.105,-29.325 25.241,-38.605 8.723,-7.238 17.818,-10.951 26.912,-10.951 13.178,0 23.015,5.754 29.882,17.261 5.568,9.28 8.352,20.973 8.352,35.079 0,6.31 -1.67,14.291 -4.826,23.757 -3.897,11.878 -8.166,17.632 -12.992,17.632 -5.382,0 -9.465,-3.341 -12.249,-10.208 1.485,-0.928 3.712,-2.784 6.496,-5.197 2.969,-3.527 4.64,-10.023 4.64,-20.045 0,-9.466 -1.114,-17.632 -3.155,-24.314 -2.97,-10.022 -8.167,-15.033 -15.22,-15.033 -5.011,0 -10.393,3.155 -16.333,9.465 -4.454,4.826 -8.166,10.208 -11.321,15.962 -7.61,14.848 -11.322,33.408 -11.322,55.494 0,32.109 12.064,48.257 36.192,48.257 10.394,0 18.56,-2.97 24.5,-8.909 2.598,-2.599 6.124,-7.981 10.95,-16.333 3.341,-6.125 6.682,-9.095 10.394,-9.095 2.598,0 4.64,0.929 6.496,2.97 1.856,1.856 2.784,3.898 2.784,6.311 z"
   style="fill:#009bce;fill-rule:nonzero"
   id="path66"
   inkscape:connector-curvature="0" />
        </g>
        <g
   transform="matrix(4.16667,0,0,4.16667,0,896.892)"
   id="g72">
            <path
   d="m 1100.58,162.619 c 0,1.3 -1.11,2.97 -3.16,4.64 -2.22,1.671 -3.52,2.97 -3.71,3.712 -4.08,7.61 -5.94,22.458 -5.57,44.73 l 0.19,9.094 c 0.37,-0.185 0.93,-0.185 1.67,-0.185 2.23,0 4.45,1.299 6.5,3.898 2.04,2.598 3.15,5.196 3.15,7.609 0,1.856 -1.48,3.155 -4.45,3.898 -2.23,0.557 -4.64,1.113 -6.87,1.485 0.19,7.238 0.19,14.662 0.37,22.086 0.37,9.466 1.3,16.518 3.16,20.973 1.11,3.897 1.85,6.496 1.85,7.795 0,2.97 -1.3,5.939 -3.52,8.352 -2.42,2.598 -5.02,3.898 -8.17,3.898 -5.94,0 -9.65,-3.156 -11.51,-9.28 -0.37,-1.3 -1.11,-6.682 -2.22,-16.333 -0.19,-3.341 -0.38,-7.424 -0.38,-12.25 v -9.465 c -0.18,-6.311 -0.55,-11.508 -1.11,-15.591 -9.09,0.371 -19.67,1.671 -32.11,3.898 -10.58,2.041 -21.34,4.083 -31.74,6.125 0.56,2.041 0.93,10.393 0.93,25.056 0,11.692 1.67,19.488 5.38,23.2 0.37,0.742 0.56,1.484 0.56,2.227 0,4.083 -2.97,6.125 -9.28,6.125 -5.753,0 -10.207,-1.856 -13.363,-5.383 -2.041,-2.041 -3.897,-18.189 -5.753,-48.256 -2.97,-0.557 -5.383,-2.413 -7.053,-5.382 -1.67,-2.784 -2.598,-5.939 -2.598,-9.28 0,-1.856 1.113,-2.97 3.155,-3.712 1.856,-0.743 3.897,-1.299 5.753,-2.042 0.186,-2.041 0.372,-5.568 0.928,-10.95 0.372,-4.455 0.743,-7.981 0.743,-10.58 0,-27.283 1.299,-44.544 4.269,-51.968 2.598,-6.124 6.867,-9.094 12.806,-9.094 3.713,0 7.243,1.299 10.393,3.712 3.34,2.413 5.01,5.382 5.01,8.909 0,1.856 -0.74,4.083 -1.85,6.867 -1.86,3.712 -2.79,5.939 -2.79,6.496 -4.27,12.992 -6.31,28.582 -6.31,46.4 v 5.383 c 1.3,-0.186 5.01,-0.743 10.95,-1.857 18.19,-3.712 35.27,-5.568 51.41,-5.568 0.56,-22.828 1.12,-37.491 1.86,-44.172 2.6,-22.272 7.98,-33.409 15.96,-33.409 4.83,0 8.72,1.857 11.88,5.569 3.15,3.526 4.64,7.795 4.64,12.62 z"
   style="fill:#009bce;fill-rule:nonzero"
   id="path70"
   inkscape:connector-curvature="0" />
        </g>
    </g>
</svg>