<?xml version="1.0" encoding="UTF-8" standalone="no"?>
<svg
   xmlns:dc="http://purl.org/dc/elements/1.1/"
   xmlns:cc="http://creativecommons.org/ns#"
   xmlns:rdf="http://www.w3.org/1999/02/22-rdf-syntax-ns#"
   xmlns:svg="http://www.w3.org/2000/svg"
   xmlns="http://www.w3.org/2000/svg"
   xmlns:sodipodi="http://sodipodi.sourceforge.net/DTD/sodipodi-0.dtd"
   xmlns:inkscape="http://www.inkscape.org/namespaces/inkscape"
   width="100%"
   height="100%"
   viewBox="0 0 180 180"
   version="1.1"
   xml:space="preserve"
   style="fill-rule:evenodd;clip-rule:evenodd;stroke-linejoin:round;stroke-miterlimit:2;"
   id="svg837"
   sodipodi:docname="fav_icon.svg"
   inkscape:version="1.0.2 (e86c8708, 2021-01-15)"><metadata
   id="metadata843"><rdf:RDF><cc:Work
       rdf:about=""><dc:format>image/svg+xml</dc:format><dc:type
         rdf:resource="http://purl.org/dc/dcmitype/StillImage" /></cc:Work></rdf:RDF></metadata><defs
   id="defs841" /><sodipodi:namedview
   pagecolor="#ffffff"
   bordercolor="#666666"
   borderopacity="1"
   objecttolerance="10"
   gridtolerance="10"
   guidetolerance="10"
   inkscape:pageopacity="0"
   inkscape:pageshadow="2"
   inkscape:window-width="1280"
   inkscape:window-height="747"
   id="namedview839"
   showgrid="false"
   inkscape:zoom="1.7973487"
   inkscape:cx="88.795596"
   inkscape:cy="111.95345"
   inkscape:window-x="0"
   inkscape:window-y="25"
   inkscape:window-maximized="1"
   inkscape:current-layer="svg837" />
    <g
   transform="matrix(136.11652,0,0,136.11652,34.216226,144.85883)"
   id="g835">
        <path
   d="m 0.805,-0.809 c 0,0.012 -0.004,0.021 -0.011,0.029 -0.013,0.014 -0.019,0.022 -0.02,0.022 -0.005,0.009 -0.01,0.03 -0.015,0.065 -0.021,0.17 -0.031,0.338 -0.031,0.504 0,0.094 0.016,0.146 0.05,0.158 V 0.003 C 0.768,0.023 0.752,0.034 0.731,0.034 0.689,0.034 0.657,-0.003 0.635,-0.078 0.619,-0.13 0.611,-0.185 0.611,-0.243 c 0,-0.125 0.004,-0.23 0.01,-0.315 -0.025,0.098 -0.05,0.196 -0.076,0.294 -0.047,0.152 -0.092,0.228 -0.135,0.228 -0.049,0 -0.092,-0.045 -0.13,-0.134 -0.035,-0.081 -0.078,-0.217 -0.129,-0.408 -0.005,0.057 -0.007,0.115 -0.007,0.174 0,0.123 0.003,0.211 0.01,0.266 0.001,0.01 0.005,0.027 0.014,0.049 0.009,0.022 0.013,0.039 0.013,0.051 0,0.028 -0.023,0.042 -0.068,0.042 -0.055,0 -0.082,-0.073 -0.082,-0.219 0,-0.059 0.004,-0.148 0.01,-0.265 0.007,-0.118 0.01,-0.205 0.01,-0.264 0,-0.006 -0.003,-0.013 -0.01,-0.021 -0.006,-0.008 -0.01,-0.015 -0.01,-0.021 0,-0.047 0.042,-0.07 0.125,-0.07 0.019,0 0.042,0.012 0.069,0.036 0.003,0.026 0.007,0.065 0.013,0.117 0.008,0.074 0.027,0.171 0.058,0.292 0.041,0.156 0.077,0.233 0.107,0.233 0.006,0 0.015,-0.012 0.026,-0.038 0.021,-0.05 0.041,-0.121 0.061,-0.212 0.015,-0.072 0.03,-0.145 0.045,-0.217 0.007,-0.034 0.019,-0.083 0.036,-0.148 0.018,-0.047 0.054,-0.071 0.11,-0.071 0.02,0 0.044,0.005 0.073,0.014 0.034,0.012 0.051,0.025 0.051,0.041 z"
   style="fill:#009bce;fill-rule:nonzero"
   id="path833" />
    </g>
</svg>
