<svg xmlns="http://www.w3.org/2000/svg" xml:space="preserve" fill-rule="evenodd" stroke-linejoin="round" stroke-miterlimit="2" clip-rule="evenodd" viewBox="0 0 5309 1592">
    <path fill="#478f37" d="M3079.004 1027.304c-4.194-.775-9.64 4.259-10.206 7.108-.567 2.86 3.192 8.255 6.908 9.528 34.515 11.772 126.8 45.467 200.429 60.061 41.704 8.267 126.066 19.145 126.066 19.145s7.762 9.33 12.155 11.809c25.46 14.38 92.158 51.776 140.329 75.53 63.865 31.504 191.44 87.193 347.468 118.128 183.381 36.352 332.272 32.182 332.272 32.182s-195.846-137.446-479.201-193.622c-162.585-32.23-316.914-28.89-316.914-28.89l-14.262-12.797s174.72 11.12 335.365-7.319c79.098-9.087 238.35-39.067 238.35-39.067l30.98 18.67s-19.012 126.69 143.97 159c72.191 14.31 145.525-22.262 155.622-73.204 13.166-66.416-54.096-130.177-112.329-145.219-12.353-3.197-31.211-9.104-31.211-9.104l62.362-21.86 20.24 13.758s214.057 120.727 403.742 158.331c133.85 26.534 299.01 27.342 299.01 27.342s-168.504-117.7-431.39-169.809c-141.108-27.971-266.922-25.138-266.922-25.138l-9.093-10.398s41.65-15.024 61.802-23.714c18.859-8.142 58.889-27.344 58.889-27.344s23.576 5.333 48.978-8.866c19.433-10.867 35.223-29.062 35.223-29.062l107.406-58.52s192.876-2.248 329.62-43.173c275.121-82.329 395.015-173.196 395.015-173.196s-204.179-.866-387.418 54.96c-191.417 58.33-325.936 145.263-325.936 145.263s95.957-77.5 134.606-133.028c57.572-82.716 79.091-172.78 79.091-172.78s-73.202 45.932-132.052 127.787c-51.119 71.087-78.806 167.792-78.806 167.792s-32.508 19.82-49.186 28.686c-16.304 8.671-50.85 24.512-50.85 24.512s12.634-29.17 15.701-44.644c14.94-75.364-23.825-114.303-54.055-120.289-70.826-14.04-121.483 70.08-130.835 117.24-14.577 73.537 32.882 109.322 32.882 109.322s-127.579 49.582-180.202 66.508c-57.97 18.64-167.562 45.309-167.562 45.309l11.075-13.922s175.817-131.679 236.893-220.645C4399.02 607.001 4427.69 440.82 4427.69 440.82s-131.898 66.35-295.086 296.654c-62.43 88.112-124.147 295.02-124.147 295.02l-16.246 12.55-11.88 14.99-103.384 18.892s162.496-220.722 219.176-506.675c20.106-101.42 24.414-201.296 24.414-201.296s-158.133 207.14-215.24 495.186c-16.999 85.752-25.534 197.755-25.534 197.755l-18.26 16.845-111.913 12.707s59.165-47.563 73.862-121.703c14.698-74.148-14.114-147.608-74.928-159.668-60.803-12.053-116.725 60.473-116.725 60.473s-19.67-68.566-34.493-100.855c-14.839-32.325-54.52-93.134-54.52-93.134s-8.122 68.88 11.033 170.489c7.355 38.955 42.113 111.243 42.113 111.243s-7.363 46.957 3.502 85.457c5.799 20.53 35.635 53.146 35.635 53.146s-136.733 17.935-354.298-25.193c-71.933-14.26-167.42-40.017-201.745-46.384z"/>
    <path fill="#009bce" fill-rule="nonzero" d="M572.603 181.674c0 8.558-2.85 14.972-7.839 20.676-9.268 9.979-13.547 15.683-14.258 15.683-3.564 6.418-7.128 21.386-10.693 46.337a2927 2927 0 0 0-22.1 359.294c0 67.009 11.407 104.078 35.643 112.636v24.236c-7.128 14.257-18.536 22.1-33.504 22.1-29.94 0-52.756-26.379-68.438-79.845q-17.107-55.603-17.108-117.625c0-89.11 2.85-163.962 7.13-224.557-17.823 69.863-35.645 139.726-54.181 209.589q-50.257 162.536-96.24 162.537c-34.929 0-65.583-32.08-92.673-95.528-24.951-57.745-55.606-154.694-91.96-290.856-3.565 40.634-4.994 81.981-4.994 124.044 0 87.685 2.14 150.415 7.13 189.623.714 7.13 3.564 19.251 9.982 34.934 6.414 15.682 9.268 27.8 9.268 36.354 0 19.962-16.397 29.944-48.477 29.944-39.208 0-58.459-52.04-58.459-156.123 0-42.058 2.854-105.507 7.129-188.913 4.993-84.12 7.129-146.14 7.129-188.199 0-4.278-2.136-9.268-7.13-14.972-4.274-5.703-7.128-10.693-7.128-14.972 0-33.504 29.944-49.901 89.114-49.901q20.316 0 49.187 25.665c2.14 18.536 4.99 46.337 9.268 83.406 5.704 52.756 19.247 121.904 41.348 208.16 29.226 111.211 54.891 166.102 76.278 166.102 4.274 0 10.693-8.554 18.536-27.086 14.968-35.644 29.226-86.26 43.483-151.134 10.693-51.326 21.387-103.367 32.08-154.694 4.99-24.236 13.547-59.17 25.665-105.507 12.833-33.505 38.494-50.616 78.417-50.616 14.257 0 31.365 3.564 52.04 9.983 24.237 8.553 36.355 17.822 36.355 29.225M1114.254 598.693c0 29.23-12.833 43.487-37.784 43.487 2.854 14.969 9.269 33.505 19.251 56.316-.714 13.547-5.704 24.24-15.686 32.794-10.693 8.554-22.097 12.833-35.644 12.833-10.693 0-23.526-3.564-37.784-10.693-7.839-15.687-11.403-33.509-11.403-54.18 0-5.704 0-13.544.71-23.526.715-10.694.715-18.533.715-24.237 0 4.275-9.269 6.415-29.23 6.415q-50.257 0-117.625 4.278c-65.584 4.275-101.228 9.98-106.932 15.683-5.7 6.414-9.979 38.494-11.404 96.953-7.843 11.404-17.822 17.108-29.23 17.108-12.832 0-25.665-5.704-38.493-15.683-13.547-10.693-19.962-22.1-19.962-34.219 0-4.279 5.704-20.672 16.397-49.901 11.404-42.773 30.655-106.932 57.741-191.763 80.556-219.568 146.14-330.065 198.896-330.065 51.326 0 91.25 58.456 119.05 173.942 12.833 52.751 24.24 132.597 34.933 240.954 15.683 4.279 24.951 7.128 29.226 8.553 9.983 5.704 14.258 13.548 14.258 24.951M989.5 563.763c-25.661-208.874-49.187-313.666-69.863-313.666-17.108 0-46.337 49.901-87.685 148.99-29.94 70.573-53.466 131.172-70.574 183.924 19.247-4.28 47.763-9.269 84.831-15.683 34.22-3.564 81.982-4.99 143.29-3.564M1611.119 174.552c0 6.414-2.854 14.968-8.554 24.95-6.418 13.544-9.983 21.387-11.408 24.237q-25.666 81.27-25.665 132.597l-2.85 255.923c-.714 26.38-6.418 52.755-17.822 79.845-14.972 34.93-33.504 52.041-54.89 52.041-32.795 0-65.589-27.09-97.668-81.985-22.812-40.633-46.338-96.239-69.863-167.527-14.258-46.337-27.801-92.674-42.059-139.011-12.832 101.232-18.532 168.955-18.532 203.17 0 76.282 4.275 119.765 13.543 131.173s13.543 19.247 13.543 24.95c0 11.408-5.704 21.387-17.822 29.94-11.404 8.555-23.526 12.833-35.644 12.833-16.393 0-29.94-17.822-40.633-52.751q-12.832-40.634-12.833-74.856c0-9.98.714-24.951 1.425-44.909 0-19.961.714-34.933.714-44.912q-.001-36.358 8.554-109.071c6.418-47.763 9.268-84.121 9.268-108.357V213.76c0-.714-.71-2.854-1.425-4.99-.714-2.853-1.425-4.278-1.425-5.703 0-11.408 7.84-21.386 24.237-29.23 12.832-6.414 25.665-9.978 39.208-9.978 29.94 0 52.041 9.978 64.874 29.225 3.564 7.133 7.129 20.676 9.979 41.348 1.425 14.258 3.564 28.515 4.989 43.487 7.129 42.059 26.38 109.782 56.32 203.171q54.532 164.675 81.267 164.677c6.418 0 9.982-7.843 9.982-24.95 0-4.28-1.429-12.123-2.854-22.816s-2.139-19.247-2.139-24.95l9.268-241.666c1.425-36.358 7.843-72.002 18.537-106.932 15.682-49.19 36.358-74.141 62.734-74.141 7.84 0 19.247 5.703 34.215 16.397.714 2.853 1.429 5.703 1.429 7.843M2168.479 456.102c0 85.546-20.676 158.259-62.735 217.429-47.051 67.009-111.92 101.228-193.902 101.228-22.815 0-47.766-4.99-74.852-13.543-59.17-19.247-101.943-52.041-126.894-99.093-22.1-40.633-33.508-94.814-33.508-162.537 0-87.681 21.39-165.388 63.448-232.397 48.477-79.13 114.776-118.34 198.182-118.34 72.713 0 131.168 34.22 174.655 102.654 37.07 58.459 55.606 126.893 55.606 204.6m-85.546-7.843c0-123.329-39.923-197.467-119.05-221.707-8.558-2.85-17.822-3.564-28.515-3.564-33.509 0-67.013 14.972-99.807 44.201-52.752 48.473-79.128 134.022-79.128 257.348 0 11.407 2.14 27.09 7.13 47.766 9.978 45.622 24.95 78.416 44.911 98.374 23.522 24.24 57.03 35.648 101.943 35.648q90.892-.001 136.872-87.685c24.236-46.337 35.644-103.368 35.644-170.38M2656.932 174.541c0 14.968-1.425 32.08-3.564 50.612-2.136 18.537-6.415 39.209-12.83 62.735-6.417 23.525-14.971 48.476-26.375 76.277-11.408 28.519-25.665 59.17-43.487 92.678-32.08 59.88-60.595 95.525-85.546 108.357-.714 11.408-1.425 21.387-1.425 30.655-.714 9.264-.714 17.822-.714 26.376 0 12.832.714 24.95 1.425 34.93a212 212 0 0 0 4.279 30.654c2.139 9.268 4.989 19.247 8.553 28.515 2.85 9.268 7.13 18.536 12.833 29.23.71.71.71 2.85.71 5.703-.71 6.415-4.274 10.694-11.403 13.544-7.129 2.139-18.537 3.564-34.22 3.564l-7.128-.715c-29.94-2.135-47.052-27.086-51.327-76.277-2.853-22.811-4.278-44.912-4.989-66.298-.714-20.672-1.429-42.059-1.429-62.735-13.543-2.135-25.661-9.264-37.069-22.811-10.693-13.543-20.672-28.515-28.515-45.623q-12.831-24.594-21.386-51.326c-5.704-17.112-9.98-30.655-12.833-40.638-4.99-17.822-9.979-37.783-14.258-59.17-4.275-22.096-7.839-42.772-12.118-62.73-3.564-19.961-7.84-37.073-12.118-52.755-4.99-15.683-9.268-25.662-14.972-31.365-2.85-2.14-5.7-4.28-8.554-7.13-2.85-2.139-3.564-4.989-3.564-8.553s1.425-7.129 5.704-10.693c3.564-3.565 8.553-7.129 14.257-10.693 6.415-2.854 12.833-5.704 19.962-7.13 7.128-2.139 14.257-2.853 21.386-2.853 14.968 0 27.8 3.564 39.919 11.408 12.122 7.128 17.822 15.682 17.822 25.661 0 3.564 0 7.843-.71 14.261-.715 7.125-1.43 13.544-1.43 20.672-.71 7.13-.71 14.258-1.424 19.962-.71 6.414-.71 10.693-.71 12.829 0 35.644 7.128 76.28 22.096 121.193 27.09 88.396 49.902 131.883 67.013 131.883 9.979 0 20.672-5.704 32.08-17.822 11.403-11.408 22.097-27.09 32.08-45.627 10.692-18.532 20.671-39.919 29.94-63.445 9.982-24.24 17.821-47.766 24.95-71.288 6.418-24.24 12.118-47.051 16.397-69.152 4.275-21.386 6.415-39.919 6.415-54.891 0-4.99-1.425-8.554-4.275-12.118-2.854-2.85-5.704-5.704-9.269-8.554-2.85-2.14-5.703-4.279-8.553-5.704q-4.28-2.137-4.28-4.279c0-4.275 4.99-10.693 13.548-17.822 8.554-6.414 22.811-10.693 42.058-10.693 5.704 0 11.408 2.14 17.822 5.704q8.556 5.347 14.968 12.833c4.28 4.989 7.844 10.693 9.983 16.397 2.85 5.703 4.275 9.978 4.275 14.257"/>
    <path fill="#009bce" fill-rule="nonzero" d="M2570.982 56.198c-4.275 9.982-9.264 16.397-15.683 19.247-7.128 2.854-29.225 15.686-67.009 38.498-32.794 19.247-53.466 28.515-62.734 28.515-7.843 0-12.118-4.99-11.408-14.972l.715-7.129c15.682-19.958 34.219-39.208 55.605-59.88 29.226-27.801 49.902-42.063 63.445-42.063q10.694.002 23.526 12.833c7.843 8.554 12.118 16.397 13.543 24.95M3118.307 566.62c1.425 13.547 2.139 24.951 2.853 34.22.711 9.982 1.425 19.96 2.85 29.94.715 9.268 2.854 19.96 6.419 30.654 2.85 11.408 7.128 24.24 12.828 37.783-.71 13.544-5.7 24.237-15.682 32.08-9.979 8.554-22.097 12.833-35.644 12.833-9.268 0-21.387-3.565-37.784-9.983-7.839-14.968-11.403-32.79-11.403-54.891 0-4.99 0-12.118.71-21.386.715-9.98 1.425-17.108 1.425-22.812 0-11.407-.71-23.526-2.135-35.644-1.43-12.118-2.14-22.811-3.565-32.794-15.682-104.078-29.23-182.495-40.633-233.825-10.693-51.327-21.387-76.988-31.37-76.988-17.107 0-46.336 48.473-87.684 146.14-14.968 35.644-28.515 68.434-40.634 97.664-11.407 29.94-21.386 58.455-29.23 84.831-4.989 13.547-9.264 27.805-12.117 41.348-2.85 13.547-5.704 24.95-7.844 33.505-1.425 4.278-2.85 14.257-4.989 30.654-2.136 16.397-3.564 37.784-5.7 64.874-7.843 11.404-17.822 17.107-29.23 17.107q-9.626 0-19.247-4.275c-7.128-3.564-12.832-7.128-18.536-11.407s-10.693-9.979-14.258-15.683c-4.275-5.704-5.703-12.118-5.703-17.822 0-3.564 4.993-19.961 15.686-49.901 47.048-171.091 92.674-300.124 138.297-387.091 44.912-86.26 84.12-129.747 118.34-129.747 19.961 0 38.494 7.843 54.176 22.815 15.687 14.968 29.94 39.208 42.063 71.999 12.832 32.794 23.525 75.566 32.79 127.607 9.982 52.041 17.822 114.772 24.95 188.2zM3663.644 600.843c0 28.515-12.832 42.773-37.783 43.487 2.85 13.543 9.268 32.08 19.247 54.891-.715 13.543-5.704 24.237-15.683 32.08-10.693 8.554-22.1 12.832-35.644 12.832-10.693 0-23.526-3.564-37.783-9.982-7.843-14.968-11.408-33.505-11.408-54.891 0-5.704 0-13.543.715-23.526.714-9.979.714-17.107.714-22.097 0 4.275-9.268 6.414-29.23 6.414-33.504 0-72.712 1.425-118.34 4.28q-98.375 5.346-106.931 14.967c-5.704 6.419-9.268 38.498-10.693 95.529-7.84 11.403-17.822 17.107-29.226 17.107-12.833 0-25.665-5.704-38.498-15.682-13.543-10.694-19.961-21.387-19.961-33.505 0-4.279 5.704-20.676 16.397-49.901 11.407-42.063 30.654-105.507 57.745-189.628q119.763-327.214 198.891-327.214c51.33 0 91.25 57.745 119.054 172.52 12.83 52.04 24.237 131.168 34.93 238.1 15.683 3.565 24.95 6.418 29.23 9.268 9.978 4.99 14.257 13.547 14.257 24.951m-124.754-34.219c-25.665-207.446-49.19-310.813-69.863-310.813-17.111 0-46.337 48.473-87.685 146.14-29.94 69.86-53.466 131.169-70.573 182.495 19.247-4.275 47.762-9.264 84.83-14.968 34.22-4.279 81.982-4.99 143.291-2.854M4037.713 445.574c0 9.663-.71 18.636-3.55 26.92-2.131 8.282-7.103 15.185-14.205 21.397q-19.175 17.601-46.873 41.414c-27.698 23.813-36.93 31.751-54.685 49.007-18.465 17.256-35.51 34.512-49.714 51.768-14.914 17.946-25.567 33.132-31.249 46.937 7.813 2.07 17.045 2.76 29.119 2.76 16.334 0 34.09-1.38 53.264-4.831 19.886-2.761 39.061-5.522 58.947-9.664 19.175-3.45 37.64-7.592 55.395-11.734s32.67-6.902 44.743-9.663h1.42c3.551 0 7.812 2.07 12.073 4.832 3.551 2.76 7.813 6.212 12.074 11.044s7.812 9.663 9.943 15.185c2.84 5.522 4.26 10.353 4.26 15.185 0 23.468-14.203 35.202-41.9 35.202-.711 0-2.131 0-3.552-.69h-4.261q-86.29 9.318-144.88 16.566c-39.771 4.832-68.18 7.593-86.645 7.593-7.102 0-13.493-.69-19.175-2.761-5.681-1.38-14.914-6.903-26.987-14.495-9.943-6.213-17.755-12.425-24.147-19.327-6.392-7.593-9.943-14.495-9.943-22.088 0-24.158 18.465-58.67 56.106-103.536q26.632-32.096 55.395-60.05c18.465-18.637 37.64-37.964 56.816-58.671q6.391-6.212 12.784-14.495c4.26-4.832 6.391-8.973 6.391-13.115 0-4.832-2.13-10.353-7.102-17.256-22.726-30.37-49.003-57.98-78.832-80.758s-59.656-44.866-89.485-64.883q-15.978-10.353-21.305-22.778c-2.841-8.282-4.972-15.875-4.972-23.468 0-11.734 2.13-20.017 7.102-24.848 4.261-4.832 12.784-8.283 24.857-11.044s28.408-5.522 49.714-8.973q30.894-4.141 80.962-16.566c14.204-3.451 29.119-6.212 45.453-8.973 15.624-2.071 31.249-4.142 46.163-5.522 14.914-2.07 27.698-2.761 39.771-3.451s21.306-1.38 27.698-1.38c5.681 0 12.783.69 20.595 2.07 7.102 1.38 14.915 3.451 22.017 6.212 7.102 3.451 12.783 7.593 17.755 13.115 4.26 5.522 7.102 12.424 7.102 21.397 0 13.115-5.682 21.398-17.755 25.539-11.364 3.451-28.408 6.212-50.424 7.593-22.727 1.38-51.135 2.76-84.514 4.831s-71.73 7.593-115.762 17.256c-3.551.69-4.972 3.451-4.972 6.903 0 2.07.71 4.141 2.131 4.831 1.42 1.38 4.261 4.142 9.233 7.593 21.305 17.256 41.901 34.512 62.497 51.768 19.885 17.256 37.64 33.822 53.265 49.007s28.408 28.99 37.64 41.415c9.943 12.424 14.204 22.087 14.204 29.68M511.302 1410.666c0 15.683-9.983 28.515-29.23 38.494q-24.594 10.693-51.326 10.693c-82.696 0-165.391-77.702-249.508-231.686q-74.853 86.617-74.853 117.625c0 54.18 7.13 93.39 20.672 116.2l2.85 25.666c-13.543 14.257-26.375 22.097-39.208 22.097-19.958 0-36.355-15.683-49.902-47.048-12.832-31.369-19.961-141.15-19.961-330.064 0-108.36 4.279-183.213 12.122-225.272 4.275-24.95 17.822-37.783 40.633-37.783 14.258 0 30.655 5.704 48.477 17.108 17.822 11.407 26.376 23.525 26.376 36.358 0 9.268-2.85 14.972-7.843 17.822-5.7 2.85-9.98 5.704-14.258 7.843-4.275 4.99-9.264 46.337-14.258 124.04-3.564 60.595-6.414 106.932-7.128 139.011 159.687-218.853 260.205-328.639 300.838-328.639 6.414 0 14.258 1.429 22.811 4.993 6.415 8.554 12.119 17.108 18.533 26.376 7.843 10.693 11.408 19.962 11.408 28.515 0 7.84-2.85 14.258-8.554 19.962-5.704 5.7-12.118 8.554-19.962 8.554-4.99 0-10.693-2.14-18.536-5.704l-2.85-2.85c-14.258 2.135-43.483 29.226-86.97 81.267-43.488 52.755-65.585 86.26-65.585 102.657q-.001 51.324 59.88 147.565c41.348 68.438 78.417 102.653 109.783 102.653 4.278 0 12.122-2.136 23.525-7.129 11.408-4.99 21.387-7.84 29.23-7.84 21.386 0 32.794 9.27 32.794 28.516M1048.228 1179.682c0 85.546-20.672 158.263-62.734 217.432-47.048 67.01-111.922 101.229-193.903 101.229-22.811 0-47.762-4.99-74.852-13.547-59.17-19.247-101.943-52.038-126.894-99.09-22.1-40.632-33.504-94.813-33.504-162.536 0-87.685 21.386-165.388 63.445-232.4 48.476-79.128 114.775-118.337 198.181-118.337 72.713 0 131.172 34.216 174.656 102.654 37.069 58.455 55.605 126.893 55.605 204.595m-85.546-7.84c0-123.328-39.922-197.47-119.05-221.706-8.557-2.85-17.822-3.565-28.515-3.565-33.505 0-67.013 14.972-99.803 44.198-52.756 48.477-79.131 134.022-79.131 257.351 0 11.408 2.14 27.09 7.128 47.762 9.98 45.627 24.951 78.417 44.913 98.379 23.525 24.24 57.03 35.644 101.942 35.644q90.892.002 136.872-87.685c24.237-46.338 35.644-103.368 35.644-170.377M1551.815 1335.808q.001 17.106-8.554 40.633c-14.968 39.919-42.773 70.574-84.12 92.674-37.07 20.672-78.418 30.655-122.615 30.655-73.428 0-129.033-27.805-168.242-82.696-34.215-48.476-51.326-110.496-51.326-186.773 0-62.735 9.982-121.904 29.94-176.795 21.386-63.449 54.18-112.636 96.953-148.28 33.505-27.8 68.438-42.062 103.368-42.062 50.616 0 88.4 22.1 114.775 66.298q32.08 53.467 32.08 134.737c0 24.236-6.419 54.89-18.537 91.25-14.968 45.622-31.365 67.723-49.901 67.723-20.672 0-36.355-12.833-47.048-39.209 5.7-3.564 14.257-10.693 24.95-19.96 11.404-13.548 17.823-38.499 17.823-76.993 0-36.358-4.28-67.723-12.122-93.388-11.404-38.494-31.366-57.741-58.456-57.741-19.247 0-39.923 12.118-62.734 36.354-17.108 18.537-31.365 39.208-43.483 61.31-29.23 57.03-43.488 128.318-43.488 213.149 0 123.329 46.338 185.352 139.012 185.352q59.883 0 94.1-34.219c9.982-9.982 23.525-30.654 42.062-62.734 12.832-23.526 25.661-34.933 39.919-34.933 9.982 0 17.822 3.568 24.95 11.407 7.13 7.13 10.694 14.972 10.694 24.24M2112.44 933.026c0 4.993-4.276 11.408-12.119 17.822-8.554 6.418-13.547 11.408-14.258 14.258-15.682 29.23-22.81 86.26-21.386 171.805l.71 34.93c1.43-.71 3.569-.71 6.419-.71 8.554 0 17.107 4.989 24.95 14.971 7.84 9.979 12.119 19.958 12.119 29.226q-.001 10.692-17.108 14.972c-8.557 2.14-17.822 4.275-26.38 5.704.715 27.8.715 56.316 1.43 84.83 1.424 36.36 4.989 63.446 12.118 80.557 4.275 14.968 7.128 24.95 7.128 29.94 0 11.408-4.989 22.812-13.543 32.08-9.268 9.979-19.25 14.972-31.369 14.972-22.811 0-37.069-12.122-44.198-35.644-1.425-4.993-4.278-25.665-8.553-62.734-.715-12.833-1.43-28.515-1.43-47.052V1296.6q-1.065-36.36-4.274-59.885c-34.934 1.425-75.567 6.419-123.33 14.972-40.632 7.84-81.98 15.683-121.903 23.526 2.14 7.84 3.564 39.92 3.564 96.239 0 44.908 6.419 74.852 20.676 89.11q2.139 4.274 2.14 8.554c0 15.682-11.408 23.526-35.648 23.526-22.097 0-39.205-7.13-51.327-20.676-7.84-7.84-14.968-69.863-22.097-185.35-11.407-2.138-20.676-9.267-27.09-20.671-6.418-10.693-9.983-22.811-9.983-35.644 0-7.129 4.28-11.408 12.122-14.258 7.13-2.853 14.969-4.989 22.097-7.843.715-7.84 1.425-21.386 3.565-42.058 1.425-17.112 2.854-30.655 2.854-40.637 0-104.793 4.989-171.092 16.397-199.607 9.978-23.522 26.375-34.93 49.187-34.93 14.257 0 27.8 4.99 39.923 14.258 12.828 9.268 19.247 20.672 19.247 34.22 0 7.128-2.854 15.682-7.13 26.375-7.128 14.258-10.692 22.811-10.692 24.95-16.397 49.902-24.24 109.783-24.24 178.22v20.677c4.989-.715 19.246-2.854 42.062-7.133 69.863-14.258 135.447-21.386 197.466-21.386 2.14-87.682 4.28-144.001 7.13-169.663 9.982-85.545 30.654-128.322 61.308-128.322 18.533 0 33.505 7.133 45.623 21.39 12.118 13.543 17.822 29.94 17.822 48.473M2622.133 1315.822c0 19.962-4.99 37.784-14.258 54.891-42.772 72.713-116.196 109.072-220.992 109.072-27.087 0-58.456-3.565-94.1-11.408-7.129 18.537-17.822 27.805-33.504 27.805-28.516 0-42.773-12.118-42.773-35.644v-12.833c0-4.99-.715-8.554-2.14-9.268-7.843-3.564-15.682-7.84-22.81-12.118-7.13-3.565-10.694-11.408-10.694-22.101 0-18.533 9.268-28.515 27.09-31.365v-1.425c0-11.408 0-28.515.71-52.756.715-22.097.715-39.919.715-53.466v-6.414c-12.118-7.129-18.536-16.397-18.536-26.376 0-11.407 5.703-21.386 17.111-29.23V930.154c0-9.268 4.99-19.247 15.683-28.515 9.978-9.98 19.961-14.972 29.94-14.972 12.832 0 21.386 1.429 26.376 4.993 5.703 7.129 12.118 13.543 17.822 19.957l-7.13 39.923c41.349-54.89 92.675-82.695 156.124-82.695 49.901 0 89.11 17.822 117.625 54.18 25.661 32.794 39.208 74.852 39.208 125.468 0 29.226-6.418 59.17-18.536 88.396-12.833 31.37-29.226 56.32-49.902 74.852 57.745 18.537 86.971 53.466 86.971 104.082m-99.803-270.894c0-72.717-26.376-109.071-79.128-109.071-38.497 0-73.427 24.95-106.221 75.563-29.94 45.626-45.623 88.4-45.623 128.318v57.034h48.477c62.02 0 106.932-9.268 133.308-27.804q49.189-34.219 49.187-124.04m18.536 265.905c0-23.526-28.515-38.498-86.26-45.627-23.522-2.139-62.734-3.564-117.625-3.564-19.247 0-35.644.714-47.762 2.14-.715 14.971-1.425 29.229-1.425 42.772v54.891c0 12.833.71 23.526 1.425 32.08 28.515 12.122 60.595 17.822 96.239 17.822 32.08 0 64.159-8.554 97.663-26.376 38.498-20.672 57.745-44.912 57.745-74.138M3067.107 1154.747c0 49.187-6.418 101.939-17.826 156.833-14.258 68.435-34.215 115.486-59.166 141.862-30.655 32.794-69.152 49.191-114.065 49.191-40.633 0-75.563-12.122-106.217-37.073-32.79-27.086-55.606-64.159-68.438-111.207-8.554-32.794-13.543-77.706-13.543-133.311 0-27.801 2.139-68.435 5.703-123.325 3.565-54.895 4.99-96.243 4.99-124.044 0-4.279-1.425-11.408-4.99-20.672-3.564-9.268-5.703-16.397-5.703-20.676 0-14.968 12.118-27.09 35.644-37.069 18.536-7.128 36.358-11.407 54.89-11.407 19.962 0 29.945 6.418 29.945 18.536 0 7.129-2.854 16.397-8.558 28.515-6.414 12.833-9.264 22.812-9.264 29.94 0 23.526-2.854 59.17-8.558 107.647-6.414 47.762-9.264 84.12-9.264 108.357v110.496c0 34.22 6.414 64.16 19.957 90.539 15.687 32.79 39.209 49.902 69.863 49.902 59.884 0 99.093-54.895 119.05-163.967 8.558-51.326 12.833-130.454 12.833-238.1 0-39.208-5.704-71.288-17.822-95.528-3.564-7.129-4.99-12.829-4.99-17.108 0-10.693 3.565-20.672 12.119-30.654 7.843-9.98 17.111-15.683 27.804-15.683q17.106.001 36.355 12.833c19.249 12.832 19.25 17.822 19.25 28.515zM3570.117 1335.808q-.002 17.106-8.554 40.633c-14.972 39.919-42.776 70.574-84.12 92.674-37.073 20.672-78.417 30.655-122.619 30.655-73.427 0-129.029-27.805-168.237-82.696-34.219-48.476-51.33-110.496-51.33-186.773 0-62.735 9.982-121.904 29.944-176.795 21.386-63.449 54.176-112.636 96.949-148.28 33.505-27.8 68.438-42.062 103.368-42.062 50.616 0 88.399 22.1 114.775 66.298q32.08 53.467 32.08 134.737c0 24.236-6.415 54.89-18.537 91.25-14.968 45.622-31.365 67.723-49.902 67.723-20.672 0-36.354-12.833-47.047-39.209 5.703-3.564 14.257-10.693 24.95-19.96 11.404-13.548 17.822-38.499 17.822-76.993 0-36.358-4.278-67.723-12.118-93.388-11.407-38.494-31.369-57.741-58.459-57.741-19.247 0-39.919 12.118-62.734 36.354-17.108 18.537-31.365 39.208-43.484 61.31-29.23 57.03-43.487 128.318-43.487 213.149 0 123.329 46.337 185.352 139.012 185.352q59.882 0 94.103-34.219c9.979-9.982 23.522-30.654 42.058-62.734 12.833-23.526 25.666-34.933 39.923-34.933 9.979 0 17.822 3.568 24.951 11.407 7.129 7.13 10.693 14.972 10.693 24.24M4130.819 933.026c0 4.993-4.264 11.408-12.138 17.822-8.527 6.418-13.52 11.408-14.25 14.258-15.67 29.23-22.815 86.26-21.394 171.805l.73 34.93c1.421-.71 3.572-.71 6.414-.71 8.566 0 17.093 4.989 24.967 14.971 7.835 9.979 12.099 19.958 12.099 29.226 0 7.129-5.685 12.118-17.093 14.972-8.565 2.14-17.822 4.275-26.387 5.704.73 27.8.73 56.316 1.421 84.83 1.421 36.36 4.993 63.446 12.138 80.557 4.263 14.968 7.105 24.95 7.105 29.94 0 11.408-4.993 22.812-13.52 32.08-9.295 9.979-19.281 14.972-31.38 14.972-22.816 0-37.065-12.122-44.21-35.644-1.42-4.993-4.263-25.665-8.526-62.734-.73-12.833-1.46-28.515-1.46-47.052V1296.6q-1.037-36.36-4.264-59.885c-34.914 1.425-75.55 6.419-123.332 14.972-40.638 7.84-81.966 15.683-121.912 23.526 2.15 7.84 3.572 39.92 3.572 96.239 0 44.908 6.414 74.852 20.664 89.11 1.422 2.85 2.151 5.7 2.151 8.554 0 15.682-11.407 23.526-35.644 23.526-22.097 0-39.204-7.13-51.326-20.676-7.84-7.84-14.968-69.863-22.097-185.35-11.408-2.138-20.676-9.267-27.09-20.671-6.415-10.693-9.98-22.811-9.98-35.644 0-7.129 4.276-11.408 12.119-14.258 7.129-2.853 14.968-4.989 22.097-7.843.714-7.84 1.429-21.386 3.564-42.058 1.43-17.112 2.854-30.655 2.854-40.637 0-104.793 4.99-171.092 16.397-199.607 9.979-23.522 26.376-34.93 49.187-34.93 14.262 0 27.82 4.99 39.92 14.258q19.242 13.9 19.242 34.22c0 7.128-2.842 15.682-7.105 26.375-7.144 14.258-10.717 22.811-10.717 24.95-16.4 49.902-24.236 109.783-24.236 178.22v20.677c4.993-.715 19.243-2.854 42.058-7.133 69.867-14.258 135.47-21.386 197.464-21.386 2.15-87.682 4.301-144.001 7.144-169.663 9.986-85.545 30.65-128.322 61.301-128.322 18.552 0 33.493 7.133 45.63 21.39 12.1 13.543 17.823 29.94 17.823 48.473"/>
</svg>